<svg width="80" height="70" viewBox="0 0 80 70" fill="none" xmlns="http://www.w3.org/2000/svg">
<circle cx="39.7727" cy="35" r="35" fill="#D9D9D9"/>
<g clip-path="url(#clip0_2010_113)">
<path d="M46.7567 49.3063C46.7567 48.8071 46.5503 48.4426 46.5417 48.4404C46.2967 47.2108 48.7317 46.0203 48.9551 44.8214C49.0309 44.659 50.7149 44.8409 50.9898 44.8192C51.6565 44.7651 52.4552 44.5725 52.9638 44.1114C53.7582 43.3906 54.3054 42.4218 54.3054 42.4218C54.3054 42.4218 56.1392 41.3689 55.9941 40.3602C55.9941 39.4425 55.2382 38.3882 54.9547 37.5246C54.7275 36.8341 54.4876 36.1113 54.0785 35.5117C53.6499 34.8818 53.0781 34.4575 52.4655 34.0072C51.9655 33.6393 51.3729 33.332 50.9118 32.9207C50.6326 32.6718 50.4811 32.3039 50.1781 32.0614C49.4833 31.5095 48.5359 31.201 47.6225 31.4911C46.7631 31.7637 46.0048 31.8601 45.4897 32.6156C45.0329 32.4229 44.5958 32.1415 44.323 31.7281C43.6628 30.7324 44.2645 29.1242 44.0351 27.9921C43.9139 27.3904 43.4983 26.7951 43.0892 26.3492C41.823 24.9726 39.1065 25.0938 37.6303 26.0419C36.2428 26.9337 35.5415 28.1696 35.2969 29.7779C35.2687 29.9619 35.2471 30.1567 35.3099 30.332C35.5199 30.9251 36.0047 30.7584 35.6324 31.5787C35.5133 31.8428 35.4463 32.2129 35.6865 32.3753C35.7839 32.4402 35.9138 32.4554 35.9939 32.5398C36.1713 32.7282 35.9593 33.0614 36.0848 33.2866C36.1541 33.4121 36.3034 33.464 36.4159 33.5507C36.7038 33.7714 36.7363 34.1827 36.8316 34.5312C37.0242 35.2346 37.6973 35.3061 38.3121 35.3018C38.4182 35.3018 39.9225 35.2108 39.9268 35.2368L39.9442 35.6697C39.9442 35.6697 38.6086 36.1741 38.0329 35.9576C37.4506 35.7433 35.574 35.8148 34.9246 36.1762C34.2817 36.5334 33.6995 37.0724 33.483 37.7931C32.4744 37.2996 31.1865 37.4425 30.312 38.1459C30.154 37.7065 29.9007 37.3018 29.5782 36.9641C29.1929 36.5637 27.8509 35.5333 28.2059 34.8363C28.2578 34.7346 28.3553 34.6676 28.4397 34.5917C29.154 33.9576 28.9094 33.1458 28.4202 32.5008C28.3574 32.4186 28.2924 32.332 28.2687 32.2303C28.2341 32.0896 28.2838 31.9446 28.2968 31.8017C28.3725 30.9922 26.8293 30.1891 26.1215 30.4012C25.4006 30.6177 24.6063 31.9164 24.3184 32.4208C23.8833 33.1827 23.7123 34.6697 24.6972 35.1632C24.6972 35.1632 24.3725 39.2759 24.6604 40.4295C24.9483 41.5832 26.0857 42.8817 26.0857 42.8817C26.0857 42.8817 26.4094 44.3993 27.2037 44.7586C27.9981 45.1222 28.5207 44.7586 28.5207 44.7586C28.5207 44.7586 30.667 45.8452 32.4722 45.4837C34.2752 45.1222 36.0805 44.2564 36.0805 44.2564C36.0805 44.2564 37.667 45.5551 37.7407 46.2759C37.8121 46.9967 37.3077 48.5855 37.3077 48.5855L37.0739 49.3063H46.7567Z" fill="#B49664"/>
<path d="M39.9078 39.3921C39.923 39.4029 39.9381 39.4158 39.9553 39.4288C39.9402 39.4179 39.9251 39.4051 39.9078 39.3921Z" fill="#301D1C"/>
<path d="M39.0086 43.5335C39.0043 43.5012 39.0021 43.4796 39.0021 43.4796C39.0021 43.4796 39.0064 43.499 39.0086 43.5335Z" fill="#301D1C"/>
<path d="M40.3982 43.8571C39.9827 44.0843 39.6818 44.5735 39.2662 42.8008C39.2662 42.8008 39.342 44.0085 39.342 44.422C39.342 44.8375 39.7576 46.1947 39.7576 46.1947C39.7576 46.1947 39.8701 45.9307 40.3615 46.1189C40.8528 46.3073 41.2662 46.4956 41.2662 46.4956C41.2662 46.4956 40.5866 46.08 40.7381 45.5908C40.8896 45.0995 41.4545 43.7791 41.4545 43.7791C41.4545 43.7791 40.8139 43.632 40.3982 43.8571Z" fill="#301D1C"/>
<path d="M50.4347 37.4061C49.0927 38.1009 48.439 38.733 48.1489 39.0815C47.8459 38.8044 47.4216 38.3953 47.3048 38.1615C47.1165 37.7849 47.3048 37.0684 47.5689 36.4255C47.833 35.7849 48.8892 35.4061 48.8892 35.4061C48.8892 35.4061 47.9455 35.5186 47.3416 35.2178C46.7377 34.9169 46.4368 34.1982 46.4368 34.1982C46.4368 34.1982 46.5493 34.8022 46.5126 35.2545C46.4758 35.7069 45.2679 35.971 44.4368 36.0467C43.6077 36.1225 41.6077 36.8757 40.664 37.4039C39.7203 37.932 39.6835 37.8195 39.7593 37.5165C39.835 37.2156 40.5146 36.2718 40.5146 36.2718C39.729 37.0402 38.7808 38.5359 39.9107 39.3888C39.4865 39.0381 40.6683 39.0403 40.8544 39.0251C41.9108 38.9494 44.4389 38.9494 44.4389 38.9494C44.4389 38.9494 44.2506 38.6096 44.8913 38.4212C45.532 38.2329 46.8914 38.3845 46.8914 38.3845C46.8914 38.3845 46.0624 38.3477 45.3069 38.5359C44.5515 38.7243 45.0428 39.1009 45.0428 39.1009L44.4779 39.4439C44.4779 39.4439 44.0234 39.8173 44.3264 39.9689C44.6294 40.1204 45.571 40.2698 45.571 40.2698C45.571 40.2698 44.703 40.3823 44.4779 40.6853C44.2506 40.9863 44.7052 41.101 44.7052 41.101C44.7052 41.101 44.2138 41.3282 43.6489 41.4408C43.0839 41.5533 41.9519 41.4039 41.6489 41.101C41.348 40.8 39.573 39.4408 39.573 39.4408C39.573 39.4408 40.742 40.5338 41.1575 41.062C41.5731 41.5901 42.4779 42.6096 42.4779 42.6096C42.4779 42.6096 42.5536 42.8737 42.4022 43.2893C42.2506 43.7049 41.9497 44.6096 41.9497 44.6096L42.4022 44.3088L42.8934 43.2893C42.8934 43.2893 43.4973 42.6096 43.913 42.2698C44.3286 41.93 47.7226 40.4212 47.7226 40.4212C47.7226 40.4212 48.9671 39.8563 50.439 39.4408C50.439 39.4408 48.8741 39.7589 48.0299 39.9905L48.4758 39.365C48.6663 39.0966 48.9217 38.7156 49.1555 38.4602C49.5667 38.01 50.4347 37.4061 50.4347 37.4061Z" fill="#301D1C"/>
<path d="M51.4792 36.173C51.4792 36.173 52.594 36.7012 53.0464 37.7206C53.4987 38.7401 53.2888 39.5323 53.2888 39.5323C53.2888 39.5323 53.8169 38.4003 53.1763 37.3072C52.5355 36.2098 51.4792 36.173 51.4792 36.173Z" fill="#301D1C"/>
<path d="M38.7023 47.065C39.3819 46.8009 39.1936 47.3291 39.1936 47.3291L39.4577 46.7252C39.4577 46.7252 39.4577 46.7251 39.1936 46.8009C38.9295 46.8767 38.7023 47.065 38.7023 47.065Z" fill="#301D1C"/>
<path d="M39.9468 40.2745C40.6632 41.1425 41.7953 43.1425 41.7953 43.1425C41.7953 43.1425 41.9468 42.5018 41.6437 42.0494C41.3429 41.5949 39.9468 40.2745 39.9468 40.2745Z" fill="#301D1C"/>
<path d="M40.9953 30.8853C40.9823 30.8357 40.9738 30.8098 40.9738 30.8098C40.9738 30.8098 40.9781 30.8379 40.9953 30.8853Z" fill="#301D1C"/>
<path d="M41.1694 30.8146C41.1694 30.8146 41.6413 30.8146 41.9226 30.5938C42.2062 30.373 42.1738 30.1846 42.1435 30.0288C42.111 29.8708 41.7041 29.9033 41.5785 29.7452C41.4529 29.5873 42.0179 29.399 42.0179 29.399C41.7668 29.3664 41.4529 29.4617 41.2646 29.7755C41.0764 30.0894 41.3274 30.215 41.3274 30.215C41.3274 30.215 41.862 30.215 41.7668 30.4358C41.6716 30.6565 41.1694 30.8146 41.1694 30.8146Z" fill="#301D1C"/>
<path d="M55.3385 40.0557C55.3321 40.0103 55.3299 39.9822 55.3213 39.9389C55.3147 39.8978 55.3061 39.8566 55.2953 39.8198C55.2585 39.6683 55.2087 39.5233 55.1502 39.3826C55.094 39.2462 55.0355 39.1142 54.9663 38.98C54.8581 38.56 54.7347 38.1488 54.594 37.7419C54.5247 37.5362 54.4467 37.3306 54.3667 37.1272L54.239 36.8241C54.1914 36.7245 54.1502 36.6228 54.0983 36.5254C54.0463 36.428 53.9987 36.3285 53.9403 36.2332C53.9121 36.1856 53.884 36.138 53.8537 36.0903L53.7563 35.954C53.726 35.9063 53.6849 35.8652 53.648 35.8219C53.6113 35.7787 53.5723 35.7332 53.5333 35.6964L53.2995 35.4691C53.1416 35.3198 52.9836 35.1704 52.8191 35.0254C52.6589 34.8847 52.4987 34.7462 52.3255 34.6141C52.2087 34.4648 52.0874 34.3219 51.9598 34.1812C51.8299 34.0384 51.6913 33.8999 51.542 33.7721C51.4663 33.7072 51.3904 33.6466 51.3039 33.5903C51.2628 33.56 51.2151 33.5383 51.1697 33.5124L51.042 33.4496L50.5506 33.2072C50.4272 33.0189 50.2909 32.85 50.1394 32.6877C49.9814 32.521 49.806 32.3652 49.609 32.2374C49.5095 32.1768 49.4056 32.1184 49.2952 32.0751C49.1827 32.0297 49.0744 32.0037 48.964 31.9734C48.7389 31.915 48.516 31.876 48.2865 31.8544C47.832 31.8089 47.3623 31.8478 46.9229 31.9972C46.7043 32.0708 46.4964 32.1791 46.3081 32.3133C46.2605 32.3457 46.2129 32.3803 46.1718 32.4193C46.1307 32.4561 46.0787 32.4929 46.0419 32.534C45.9575 32.6206 45.8882 32.7115 45.8212 32.7981C45.7519 32.8847 45.6826 32.9691 45.6003 33.034C45.5744 33.0557 45.5484 33.073 45.5224 33.0881C45.2887 33.0514 44.7605 32.9215 44.2952 32.482C44.1631 32.3716 44.0694 32.2255 43.9698 32.0848C43.9698 32.0848 43.7562 31.7202 43.7301 31.6379C43.6176 31.3132 43.5289 30.9777 43.5029 30.6357C43.4899 30.4647 43.4964 30.2938 43.5181 30.1227C43.5397 29.9539 43.5787 29.7851 43.5938 29.6119C43.6328 29.2677 43.6133 28.9171 43.544 28.5751C43.4726 28.2353 43.3471 27.9063 43.1783 27.6032C43.0916 27.4538 43.0029 27.3024 42.8968 27.1638C42.7995 27.0188 42.6847 26.8889 42.557 26.7655C42.2994 26.5274 41.9899 26.35 41.6609 26.233C41.3318 26.114 40.9877 26.049 40.6414 26.0187C40.2951 25.9884 39.9466 25.9928 39.6002 26.0253C39.4271 26.0448 39.2561 26.0599 39.0808 26.1054C38.9119 26.1486 38.7474 26.205 38.5829 26.2633C38.2561 26.3846 37.94 26.5361 37.6435 26.7179C37.3448 26.8997 37.0699 27.1227 36.8339 27.3824C36.6024 27.6443 36.3989 27.9452 36.2907 28.2851C36.1868 28.5946 36.1045 28.9062 36.0418 29.2288C35.9703 29.5059 35.9033 29.837 35.9855 30.0643C35.9877 30.0729 35.9877 30.0838 35.9877 30.0924C35.9963 30.1378 36.0072 30.1855 36.0244 30.231C36.0331 30.2548 36.0439 30.2786 36.0591 30.3002C36.0678 30.311 36.0721 30.3241 36.085 30.3349C36.0958 30.3478 36.1024 30.3565 36.1284 30.3738L36.1327 30.376L36.1435 30.3803C36.2323 30.4063 36.3275 30.4496 36.3924 30.5037C36.4249 30.5318 36.4487 30.5621 36.4552 30.5903C36.4617 30.6206 36.4574 30.64 36.4335 30.6963C36.3968 30.7807 36.347 30.8782 36.2993 30.9691C36.2518 31.0622 36.2041 31.1552 36.1587 31.2504C36.1132 31.3457 36.0699 31.4431 36.0352 31.5448C36.018 31.5968 36.0028 31.6487 35.992 31.7072C35.9855 31.7656 35.9725 31.8306 36.0136 31.9128C36.0418 31.9604 36.0937 32.0146 36.137 32.047C36.1825 32.0838 36.2301 32.1141 36.2777 32.1401C36.3535 32.1812 36.4314 32.2137 36.5115 32.244C36.4877 32.3803 36.4682 32.5145 36.4682 32.6574C36.4682 32.6985 36.4703 32.7418 36.4746 32.7851C36.4812 32.8284 36.4898 32.8738 36.5115 32.9236L36.5331 32.9604C36.5396 32.9713 36.5461 32.9778 36.5504 32.9864L36.5851 33.034L36.6543 33.1271L36.6609 33.1358L36.6717 33.1444C36.7409 33.1942 36.8102 33.257 36.8708 33.3219C36.9314 33.3869 36.9876 33.4582 37.031 33.5319C37.0764 33.6098 37.1046 33.6812 37.1241 33.7721C37.1457 33.8652 37.1716 33.9604 37.2019 34.0535C37.2647 34.2375 37.3426 34.4215 37.4704 34.586C37.5353 34.666 37.6133 34.7419 37.7106 34.7938C37.7604 34.8197 37.8124 34.8371 37.8708 34.85C37.9162 34.8587 37.9639 34.8652 38.0158 34.8717C38.2149 34.8912 38.4076 34.8869 38.6003 34.8739C38.7929 34.8609 38.9833 34.8349 39.176 34.7981C39.2712 34.7786 39.3687 34.7548 39.4617 34.7224C39.5527 34.6921 39.6457 34.6552 39.7323 34.6163C39.8817 34.5513 40.0245 34.4821 40.1695 34.4085C40.3059 34.638 40.4315 34.8782 40.5245 35.1228C40.5483 35.1899 40.5721 35.2591 40.5852 35.3263C40.5916 35.3522 40.6003 35.3999 40.6024 35.4302C40.6068 35.4626 40.6089 35.4951 40.6089 35.5298C40.6089 35.599 40.6024 35.6661 40.5873 35.731C40.5786 35.7635 40.57 35.796 40.5591 35.8263C40.5526 35.8436 40.544 35.8609 40.5375 35.8782L39.3795 36.2072L38.7799 36.376C38.6825 36.4021 38.5808 36.428 38.4833 36.4518C38.4336 36.4627 38.3838 36.4735 38.334 36.4822C38.2907 36.4907 38.2366 36.4973 38.2041 36.4994C38.0201 36.4604 37.8405 36.428 37.6587 36.4021C37.4704 36.376 37.282 36.3566 37.0916 36.3414C36.9011 36.3306 36.7106 36.3219 36.518 36.3285C36.4227 36.3306 36.3253 36.3371 36.2301 36.3457C36.1348 36.3588 36.0375 36.3652 35.9422 36.3869C35.847 36.4021 35.7517 36.4302 35.6565 36.4561C35.5591 36.4907 35.479 36.5168 35.3859 36.56C35.2928 36.599 35.2084 36.6444 35.1218 36.6899C35.0374 36.7376 34.9552 36.7873 34.8751 36.8415C34.795 36.8934 34.7171 36.9518 34.6413 37.0103C34.5656 37.0687 34.492 37.1315 34.4205 37.1964C34.3491 37.2614 34.2798 37.3284 34.2128 37.3977C34.1456 37.4692 34.0829 37.5384 34.0201 37.6185L34.0157 37.625L34.0114 37.6337L33.6911 38.2722C33.5699 38.2354 33.4487 38.2007 33.3274 38.1704C33.1737 38.1337 33.0201 38.099 32.8642 38.0731C32.7084 38.0449 32.5503 38.0276 32.3924 38.0146C32.3123 38.0103 32.2322 38.0038 32.1521 38.0059C32.072 38.0038 31.9919 38.0082 31.9097 38.0167C31.8296 38.0211 31.7473 38.0406 31.6672 38.0536L31.546 38.0882L31.5157 38.0968L31.5093 38.099L31.5006 38.1012L31.4941 38.1229L31.44 38.1423C31.3685 38.1683 31.2928 38.2007 31.2192 38.2333C31.1477 38.2679 31.0741 38.3003 31.0049 38.3393C30.8642 38.415 30.7279 38.4994 30.598 38.5926C30.5331 38.638 30.4702 38.6878 30.4075 38.7397C30.3815 38.7614 30.3577 38.783 30.3317 38.8046C30.1153 38.4432 29.8858 38.0947 29.6304 37.757C29.4875 37.5709 29.3361 37.389 29.1629 37.2203C29.1218 37.1769 29.072 37.138 29.0265 37.099L28.8967 36.9886C28.8166 36.915 28.7365 36.8371 28.6629 36.7527C28.5872 36.6683 28.5157 36.5817 28.4464 36.493C28.3772 36.4042 28.3122 36.3111 28.2495 36.2159C28.1239 36.0275 28.0113 35.8284 27.9161 35.6271C27.8685 35.5254 27.8252 35.4215 27.7884 35.3176C27.7711 35.2678 27.7559 35.2137 27.7386 35.1574C27.7234 35.1055 27.7105 35.0514 27.6997 34.9951C27.6759 34.8847 27.6564 34.7743 27.6412 34.6639C27.6325 34.5903 27.6261 34.5146 27.6196 34.4388C27.6348 34.4366 27.6499 34.4345 27.6651 34.4323C27.7192 34.4258 27.7711 34.415 27.8252 34.4042C27.8794 34.3934 27.9313 34.3782 27.9854 34.3609C28.0395 34.3436 28.0936 34.3219 28.1477 34.2938C28.2018 34.2613 28.2559 34.231 28.3036 34.1683C28.3295 34.1422 28.3447 34.1011 28.362 34.0644C28.3685 34.0449 28.3706 34.0232 28.3729 34.0038L28.3772 33.9734C28.3772 33.9756 28.3772 33.9626 28.3772 33.9583L28.3793 33.9193L28.3837 33.8912C28.3858 33.8739 28.3923 33.8522 28.3966 33.8306C28.4096 33.7873 28.4248 33.744 28.4443 33.6985C28.4638 33.6509 28.4832 33.6011 28.5005 33.5449C28.5179 33.4885 28.5308 33.4236 28.5287 33.3522C28.5265 33.2808 28.5027 33.2137 28.4724 33.1552C28.4356 33.0946 28.4075 33.0578 28.3772 33.0145C28.2624 32.8608 28.0914 32.7115 27.9681 32.5664C27.9724 32.4929 28.0221 32.428 28.0136 32.3587C28.0005 32.2743 27.981 32.1899 27.9486 32.1119C27.8879 31.9517 27.7906 31.8111 27.6737 31.692C27.6174 31.6335 27.5655 31.5838 27.507 31.5275C27.4508 31.4734 27.3923 31.4215 27.3338 31.3717C27.2148 31.2699 27.0892 31.1703 26.9421 31.0902C26.8685 31.0513 26.7884 31.0145 26.691 30.9972C26.6434 30.9907 26.5893 30.9864 26.533 30.9993C26.5179 31.0037 26.5092 31.0037 26.4876 31.0124L26.4615 31.0232C26.4464 31.0275 26.4139 31.0448 26.3923 31.0578C26.3079 31.1097 26.2472 31.1812 26.2018 31.2267C26.1542 31.2721 26.1282 31.285 26.0785 31.2873C26.0676 31.2894 26.0524 31.2873 26.0395 31.285L25.981 31.2786C25.9615 31.2765 25.9334 31.2765 25.9096 31.2765C25.8858 31.2786 25.8642 31.2786 25.8404 31.2808C25.7494 31.2916 25.6607 31.3197 25.5806 31.363C25.5005 31.4084 25.4247 31.4713 25.3707 31.5643C25.3576 31.5881 25.3468 31.6141 25.3381 31.6422L25.323 31.7007L25.3014 31.7872C25.1867 31.9279 25.0763 32.0687 24.9724 32.2245C24.9442 32.2656 24.9183 32.3089 24.8944 32.3565C24.8814 32.3825 24.8706 32.4063 24.8598 32.4431L24.8403 32.5081C24.8274 32.5492 24.8122 32.5903 24.7971 32.6314C24.7819 32.6704 24.7646 32.7093 24.7473 32.7461C24.7191 32.7851 24.6953 32.8219 24.6714 32.8608C24.6455 32.9041 24.6217 32.9475 24.6 32.9907C24.5546 33.0795 24.5156 33.1726 24.4875 33.2721C24.4723 33.3219 24.4615 33.3738 24.455 33.4258C24.4486 33.4756 24.4442 33.5211 24.4399 33.573C24.4334 33.6704 24.4291 33.7656 24.4312 33.863C24.4334 33.9604 24.4377 34.0578 24.4507 34.1574C24.4572 34.2072 24.4658 34.2569 24.4789 34.3089C24.4918 34.3609 24.5092 34.415 24.5503 34.4756C24.5633 34.4907 24.5698 34.5059 24.5892 34.521C24.6065 34.534 24.6303 34.5535 24.6455 34.5579C24.665 34.5665 24.6932 34.5795 24.7191 34.5882C24.7689 34.6054 24.8165 34.6185 24.8641 34.6314C24.9355 34.6488 25.007 34.6618 25.0763 34.6726C25.1152 34.8154 25.1455 34.9691 25.1672 35.1185C25.191 35.2938 25.2062 35.4691 25.2083 35.6466C25.2083 35.8219 25.2039 35.9994 25.1801 36.1748C25.1715 36.2635 25.1542 36.348 25.1412 36.4367L25.0849 36.7007C25.0676 36.7895 25.0481 36.8761 25.0373 36.9735C25.0243 37.0666 25.0135 37.1618 25.007 37.2527C24.9896 37.4367 24.9853 37.6207 24.9853 37.8047C24.9832 37.9887 24.9896 38.1704 24.9962 38.3544C25.007 38.5363 25.0178 38.7202 25.0351 38.9021C25.0502 39.0839 25.072 39.2657 25.0957 39.4475C25.1195 39.6294 25.1477 39.809 25.178 39.9887C25.2104 40.1683 25.2473 40.348 25.2884 40.5276C25.31 40.6164 25.3338 40.7051 25.3576 40.7961C25.3836 40.8848 25.4118 40.9735 25.4421 41.0623L25.494 41.1943L25.507 41.2268L25.5157 41.2463L25.5221 41.2614L25.5503 41.322C25.5871 41.4021 25.6347 41.4865 25.6802 41.5709C25.7754 41.7311 25.8815 41.8848 25.9962 42.032C26.1131 42.177 26.2364 42.3134 26.3685 42.4432C26.4918 42.5644 26.6196 42.6748 26.7581 42.7831C26.8079 42.9995 26.8749 43.2052 26.9637 43.4108C27.0612 43.6229 27.1802 43.8372 27.3858 43.9995C27.6066 44.1468 27.8447 44.1857 28.0719 44.2246C28.3014 44.2593 28.5265 44.2766 28.7451 44.3047C28.8534 44.3199 28.9616 44.3372 29.0633 44.3653C29.1131 44.3805 29.1608 44.3978 29.2062 44.4173C29.2603 44.4411 29.3079 44.4649 29.3642 44.4866C29.5828 44.5753 29.7971 44.6467 30.0179 44.7095C30.2365 44.7744 30.4594 44.8264 30.6845 44.8718C30.9096 44.9152 31.1348 44.9498 31.362 44.9758C31.5894 44.9974 31.8188 45.0147 32.0482 45.0147L32.2192 45.0169L32.3902 45.0082C32.5049 45.0017 32.6196 44.9974 32.7343 44.9801C32.8491 44.9627 32.9638 44.9563 33.0764 44.9303L33.4141 44.8588L33.7452 44.7571C33.8556 44.7246 33.9595 44.6706 34.0655 44.6294C34.1738 44.5862 34.2755 44.5364 34.375 44.4866L34.6781 44.3372C34.8816 44.2354 35.0829 44.1337 35.282 44.0277C35.4833 43.9216 35.6825 43.8134 35.8773 43.6987C35.9768 43.6424 36.0721 43.5818 36.1695 43.5212C36.2106 43.4952 36.2518 43.467 36.2907 43.439C36.3253 43.4303 36.3621 43.4259 36.3968 43.4238C36.4509 43.5212 36.505 43.6164 36.5656 43.7116C36.6522 43.8481 36.7431 43.98 36.8426 44.1099C36.9401 44.2377 37.044 44.3632 37.1544 44.4822C37.2085 44.5428 37.2669 44.5991 37.3232 44.6576L37.4985 44.8221C37.5569 44.8762 37.6154 44.9324 37.663 44.9887C37.7149 45.0428 37.7604 45.1077 37.8081 45.1662C37.8513 45.229 37.8989 45.2917 37.9379 45.3589C37.979 45.4238 38.018 45.4931 38.0526 45.5623C38.0873 45.6316 38.124 45.7008 38.1543 45.7723C38.1868 45.8437 38.2149 45.9173 38.2431 45.9887C38.295 46.1316 38.3151 46.2353 38.3188 46.4238C38.1651 47.1424 38.0678 47.8589 37.9271 48.5819L37.8189 49.1663H38.0894C38.0937 48.9779 38.1566 48.7702 38.1695 48.5732C38.3124 47.8589 38.4797 47.1603 38.5159 46.4368C38.5271 46.2104 38.4393 46.0943 38.3817 45.939C38.3535 45.8632 38.3232 45.7875 38.2907 45.7139C38.2604 45.6381 38.2236 45.5666 38.1868 45.4931C38.15 45.4216 38.1111 45.3502 38.0678 45.2809C38.0267 45.2095 37.979 45.1446 37.9314 45.0775C37.8816 45.0125 37.834 44.9476 37.7755 44.8849C37.7214 44.8199 37.663 44.7658 37.6067 44.7095L37.4336 44.545C37.3795 44.4887 37.3232 44.4346 37.2712 44.3762C37.1652 44.2615 37.0656 44.1381 36.9725 44.0147C36.8773 43.8892 36.7885 43.7593 36.7063 43.6272C36.6694 43.5688 36.6348 43.5082 36.6002 43.4498C36.6738 43.4714 36.7453 43.5082 36.8123 43.5428C36.9963 43.6359 37.1781 43.729 37.3621 43.822C37.5483 44.0926 37.8081 44.4692 38.0201 44.7853C38.3968 45.3502 38.7366 46.2939 38.7756 46.4823C38.8124 46.6706 38.8124 46.6706 38.8124 46.6706C38.8124 46.6706 39.125 46.2061 39.3133 46.2061C39.5016 46.2061 39.5656 46.2549 39.5656 46.2549C39.5656 46.2549 39.3384 46.0277 39.2258 45.2745C39.1284 44.6229 39.031 43.7744 39.005 43.5558C39.0245 43.7419 39.0656 44.3545 38.8102 44.4822C38.5093 44.6337 38.2431 44.5623 38.0548 44.4065C37.8665 44.2506 37.3361 43.69 37.3361 43.69C36.8751 42.7787 37.334 41.7917 37.6002 40.861C37.676 40.5969 38.57 39.2981 38.7994 39.5688C38.8708 39.6532 38.8729 39.7722 38.8729 39.8826C38.8665 40.5558 38.86 41.2289 38.8535 41.9021C39.0028 40.9562 39.1544 39.9951 39.0505 39.0428C39.031 38.8566 39.0007 38.6726 38.9985 38.4865C38.992 37.8501 39.3557 37.4064 39.6782 36.9021C39.6782 36.9021 38.3211 37.4302 37.15 38.0341C35.9811 38.638 35.4898 38.0341 35.5656 37.5817C35.6413 37.1293 36.8491 36.7895 36.8491 36.7895C36.518 36.8046 36.1717 36.8782 35.8664 37.0038C35.6565 37.0904 34.992 37.6661 34.821 37.6099C34.6955 37.5687 34.6738 37.4237 34.6997 37.2852C34.7279 37.2614 34.7538 37.2375 34.782 37.2159C34.8534 37.1596 34.927 37.1055 35.0028 37.0558C35.0785 37.0038 35.1565 36.9583 35.2344 36.9129C35.3145 36.8718 35.3946 36.8284 35.4768 36.7938C35.5526 36.757 35.6521 36.7224 35.7301 36.6964C35.8166 36.6726 35.901 36.6467 35.9898 36.6315C36.0786 36.612 36.1695 36.6033 36.2582 36.5925C36.3491 36.586 36.44 36.5774 36.531 36.5752C36.715 36.5687 36.8989 36.5752 37.0829 36.586C37.2669 36.599 37.4509 36.6185 37.6349 36.6444C37.7063 36.6553 37.7799 36.6661 37.8513 36.6791L36.847 36.7917C36.847 36.7917 38.0916 36.9432 38.8838 36.7159C39.2951 36.599 39.7409 36.4107 40.0786 36.257L40.6371 36.0968L40.6738 36.086L40.6933 36.0557C40.7215 36.0081 40.7366 35.9735 40.7518 35.9323C40.7669 35.8912 40.7777 35.8522 40.7864 35.8111C40.8016 35.7375 40.808 35.6618 40.8103 35.5881C40.9336 35.4605 41.1847 35.1639 41.254 34.8176C41.347 34.3522 41.347 32.3479 41.4878 32.0665C41.6284 31.7872 41.86 31.5535 41.86 31.5535C41.86 31.5535 41.6176 31.4344 41.3882 31.6964C41.4531 31.6032 41.5353 31.521 41.6392 31.4647C42.0419 31.2396 42.4012 31.6899 42.4012 31.6899C42.4012 31.6899 42.0873 32.9452 42.0419 33.5275C41.9964 34.1098 42.0419 34.2895 42.0419 34.2895L42.3103 33.1228L42.6696 33.9756C42.6696 33.9756 43.0289 33.8414 43.386 33.7959C43.622 33.7656 43.9098 33.7938 44.0765 33.8132C43.8666 33.8522 43.6696 33.9215 43.4769 33.9994C43.2669 34.086 43.0635 34.1855 42.8665 34.2938C42.6674 34.3977 42.4791 34.5276 42.2929 34.6509L41.1717 35.3999L42.3146 34.7375C42.5051 34.6163 42.6912 34.4951 42.8925 34.3955C43.0916 34.2916 43.2951 34.1986 43.5029 34.1185C43.7107 34.0384 43.925 33.9691 44.1415 33.941L44.3103 33.9237C44.3687 33.915 44.425 33.9063 44.4813 33.8891C44.5938 33.8587 44.7562 33.8132 44.8579 33.7613C45.0613 33.6553 45.1912 33.4605 45.3752 33.3392C45.4229 33.3089 45.464 33.2829 45.5159 33.257C45.5592 33.2353 45.609 33.2072 45.6501 33.1747C45.6847 33.2678 45.7865 33.5232 45.938 33.7028C46.1263 33.9302 46.1263 33.9302 46.1263 33.9302C46.1263 33.9302 45.7865 33.2137 45.9748 32.8738C46.0073 32.8133 46.0397 32.7635 46.0722 32.718C46.0895 32.6985 46.1047 32.679 46.122 32.6617C46.1631 32.6206 46.2042 32.5925 46.2475 32.5556C46.2886 32.5189 46.3319 32.4864 46.3796 32.4583C46.5593 32.3349 46.7562 32.2332 46.964 32.1682C47.3796 32.0318 47.8276 31.9994 48.2649 32.0492C48.4835 32.0729 48.7021 32.1141 48.9121 32.1704C49.0203 32.2007 49.1285 32.231 49.2238 32.27C49.3212 32.3089 49.4164 32.363 49.5051 32.4193C49.6848 32.5384 49.8471 32.6855 49.9943 32.8457C50.1415 33.0059 50.3558 33.2396 50.4705 33.4215C50.4575 33.6466 50.4099 34.1725 50.2346 34.4929C50.0073 34.9085 49.8948 35.0579 49.8948 35.0579C49.8948 35.0579 50.0528 34.8998 50.2238 34.6683C50.3363 34.5795 50.4641 34.4864 50.5961 34.4106C50.806 34.2895 51.0311 34.2072 51.2302 34.2505C51.9316 34.4042 52.1048 35.0102 51.7519 35.5795C52.2758 34.7332 53.2952 36.0081 53.5636 36.4994C53.91 37.1336 54.2563 37.7267 54.423 38.0082C54.5334 38.3436 54.633 38.6834 54.7195 39.0233C54.4879 38.8523 54.1589 38.7592 54.1589 38.7592C54.4273 38.9605 54.7217 39.2679 54.9165 39.4844C54.9187 39.4908 54.9208 39.4952 54.923 39.5016C54.9771 39.6358 55.0226 39.7722 55.055 39.9064C55.0637 39.941 55.0701 39.9735 55.0767 40.006C55.0832 40.0341 55.0875 40.0817 55.0918 40.1099C55.0962 40.1791 55.1005 40.2484 55.0962 40.3177C55.0918 40.4562 55.0723 40.5947 55.0377 40.7289C55.0009 40.861 54.9511 40.9886 54.8753 41.0948C54.8558 41.1229 54.8386 41.1423 54.8191 41.164L54.7801 41.2029C54.7801 41.2029 54.7693 41.2116 54.7693 41.2138L54.7649 41.2181L54.7455 41.2355C54.6913 41.2809 54.633 41.3263 54.5766 41.3718C54.4533 41.467 54.3277 41.5601 54.2 41.651C53.8926 41.6878 53.5615 41.3242 53.3796 41.1034C53.5723 41.2138 53.7498 41.3112 53.858 41.3285C54.3862 41.4043 54.7628 41.4411 54.9511 40.8761C55.0355 40.6207 54.99 40.3242 54.8927 40.0406C54.8147 39.8155 54.7065 39.6012 54.6027 39.4259C54.91 40.164 53.555 40.848 53.6005 39.7939C53.6091 39.5796 53.6177 39.3653 53.6264 39.151C53.5636 39.7398 53.2476 40.2939 52.7801 40.6532C52.4792 40.6424 52.0701 40.8047 51.8342 40.861C51.3796 40.9714 50.9316 41.1099 50.4749 41.216C49.687 41.4 48.8948 41.5796 48.122 41.8155C46.7649 42.2311 44.425 43.4367 44.425 43.4367C45.254 43.1359 45.0289 43.8892 45.0289 43.8892C45.2518 43.8545 45.4727 43.8199 45.6956 43.7874C45.9553 43.7485 46.1479 43.7528 46.3558 43.7874C46.1653 43.8155 45.9942 43.861 45.8168 43.9064C45.622 43.9584 45.4293 44.0126 45.2367 44.0709L45.1891 44.0861L45.1804 44.1359C45.1761 44.164 45.1631 44.2051 45.1523 44.2398C45.1414 44.2766 45.1285 44.3113 45.1155 44.348C45.0895 44.4194 45.0592 44.4909 45.0267 44.5623C44.9943 44.6337 44.9618 44.703 44.9271 44.7723L44.8731 44.8762L44.8168 44.9735C44.7367 45.1034 44.6436 45.2225 44.5354 45.3329C44.4813 45.387 44.425 45.439 44.3666 45.4865C44.3081 45.5342 44.2432 45.5797 44.1826 45.6164L44.122 45.6533L44.1587 45.7139C44.2908 45.9325 44.4142 46.1727 44.4705 46.4151C44.4791 46.4455 44.4791 46.4758 44.4856 46.5061C44.4856 46.5364 44.4921 46.5559 44.4834 46.5905C44.4769 46.6468 44.4553 46.716 44.438 46.7723C44.4207 46.8243 44.399 46.8719 44.3709 46.9152C44.2908 46.9801 44.2021 47.0364 44.1112 47.0818C44.0332 47.1013 43.9488 47.11 43.86 47.1208L43.4661 47.1684C43.3795 47.1793 43.2951 47.1879 43.2086 47.1965C43.6003 47.1446 44.0008 47.0732 44.122 46.9866C44.3861 46.7982 44.2735 46.5342 44.122 46.0819C43.9705 45.6294 43.6306 45.4021 43.6306 45.4021C43.6306 45.4021 43.7822 45.7031 43.8189 45.9303C43.8557 46.1576 43.4791 45.8935 43.3276 45.8178C43.176 45.742 43.0267 45.8935 42.8362 46.045C42.6479 46.1966 42.4964 45.8567 42.4964 45.8567C42.4964 45.8567 42.3449 46.084 42.1197 46.1576C41.9033 46.229 41.5851 45.8762 41.6198 45.6619C41.6436 45.5147 41.65 45.3784 41.7106 45.242C41.8643 44.9065 41.9747 44.5775 42.1501 44.2528C41.834 44.7052 41.4921 45.2463 41.3947 45.7961C41.3839 45.8632 41.386 45.9346 41.4077 45.9996C41.4466 46.1316 41.5158 46.2464 41.5808 46.3611L41.7886 46.7009C41.7951 46.7117 41.8016 46.7247 41.8081 46.7355C41.8622 46.9974 41.9639 47.5948 41.8189 47.7421C41.6306 47.9303 40.5337 48.4269 40.1176 49.1857H41.241C41.5077 49.1857 42.0759 49.1857 42.5419 49.1857H45.3601C45.3579 48.8914 45.4077 48.5949 45.4856 48.3091C45.899 46.8156 47.0592 45.6619 48.1848 44.5991C47.8579 44.4628 47.4878 44.3914 47.1761 44.2333C46.9835 44.1359 46.8211 44.0667 46.6912 44.0147C46.7887 44.0406 46.8861 44.0645 46.9835 44.0861C47.1804 44.1316 47.3774 44.1727 47.5744 44.2095C47.9142 44.2723 48.2562 44.3199 48.6004 44.348C48.529 44.571 48.438 44.7355 48.3255 44.9432C48.2043 45.1749 48.0224 45.3675 47.8449 45.558C47.6653 45.7485 47.477 45.9303 47.2887 46.1099C47.1934 46.1987 47.0982 46.2896 47.0008 46.3762C46.9034 46.4649 46.7562 46.6121 46.6674 46.7095C46.49 46.9044 46.3276 47.1121 46.1934 47.3415C46.1241 47.4519 46.0722 47.5775 46.0224 47.6987C45.977 47.8221 45.9337 47.9454 45.8947 48.0711C45.8168 48.3221 45.7519 48.5754 45.6913 48.8308C45.6631 48.9476 45.6415 49.0667 45.6154 49.1836H45.7994C45.8233 49.071 45.8428 48.9585 45.8666 48.8459C45.9228 48.5905 45.9857 48.3373 46.0592 48.0862C46.096 47.9606 46.1371 47.8373 46.1805 47.716C46.228 47.5948 46.2757 47.478 46.345 47.3633C46.4726 47.1381 46.5765 46.9822 46.7497 46.7874C46.8363 46.6901 46.9272 46.597 47.0224 46.5082C47.1198 46.4217 47.2129 46.3286 47.3082 46.2377C47.4965 46.0558 47.6804 45.8697 47.8579 45.677C48.0332 45.4844 48.2692 45.2333 48.3882 44.9996C48.4987 44.7918 48.5846 44.5731 48.656 44.348C48.7145 44.3524 48.7355 44.3562 48.7757 44.3588C48.9748 44.3719 49.1848 44.3762 49.3818 44.3696C49.5852 44.3632 49.7887 44.348 49.9878 44.3264C50.1892 44.3047 50.3883 44.2788 50.5874 44.2463C50.7865 44.216 50.9835 44.1771 51.1827 44.1359C51.5766 44.0493 51.9684 43.9519 52.3515 43.8047C52.542 43.7311 52.7411 43.6359 52.8991 43.4865C53.0572 43.3437 53.1892 43.1922 53.319 43.0342C53.5702 42.7246 53.7931 42.3999 54.0052 42.0644C54.2434 41.8999 54.4793 41.7333 54.713 41.5558C54.7736 41.5103 54.8321 41.4649 54.8905 41.4151L54.9122 41.3956L54.9273 41.3826L54.9381 41.374L54.9792 41.335C55.0095 41.3004 55.0398 41.2658 55.0637 41.2332C55.1611 41.0969 55.2217 40.9454 55.2628 40.7917C55.3039 40.638 55.3277 40.4822 55.3299 40.3242C55.3494 40.2138 55.345 40.1337 55.3385 40.0557ZM36.1998 29.5924C36.1933 29.5924 36.1933 29.5794 36.1954 29.5599C36.202 29.5729 36.2084 29.5837 36.2171 29.5946C36.2106 29.5924 36.2041 29.5924 36.1998 29.5924ZM24.9312 34.2484C24.8295 34.1639 24.7429 34.1141 24.6714 34.0513C24.665 33.9886 24.6629 33.9237 24.6629 33.8587C24.6629 33.7678 24.665 33.6769 24.6714 33.5881C24.6758 33.547 24.6801 33.4972 24.6845 33.4561C24.6909 33.4171 24.6975 33.376 24.7104 33.3349C24.7343 33.2548 24.7667 33.1747 24.8079 33.0968C24.8274 33.0578 24.849 33.0189 24.8728 32.9821C24.8944 32.9452 24.9204 32.9063 24.9442 32.8738C24.9485 32.863 24.9637 32.8371 24.968 32.8284C25.0417 32.8522 25.139 32.8977 25.2342 32.995C25.4226 33.1834 25.4226 33.1834 25.4226 33.1834C25.4226 33.1834 25.1715 32.6119 25.1607 32.3716C25.2739 32.166 25.3858 32.0578 25.5027 31.9171L25.52 31.8955L25.5265 31.8695L25.5546 31.7591L25.5676 31.7072C25.5698 31.6985 25.5741 31.6899 25.5784 31.679C25.6001 31.6379 25.6455 31.5989 25.6975 31.5686C25.7494 31.5405 25.8101 31.521 25.8706 31.5145L25.9161 31.5124C25.9312 31.5124 25.9399 31.5124 25.9594 31.5145L26.0157 31.521C26.0395 31.5232 26.0633 31.5254 26.0893 31.5232C26.1217 31.5232 26.1586 31.5145 26.1932 31.5037L26.6304 32.0146C26.6304 32.0146 26.5431 31.4961 26.5456 31.2731C26.5459 31.2407 26.5762 31.2288 26.5762 31.2288C26.5698 31.231 26.5828 31.2288 26.5849 31.2288C26.6023 31.2244 26.6282 31.2244 26.6542 31.2288C26.7083 31.2375 26.7689 31.2634 26.8295 31.2959C26.9507 31.363 27.0676 31.4539 27.178 31.5491C27.2343 31.5968 27.2884 31.6487 27.3447 31.6985C27.3966 31.7483 27.4551 31.8024 27.5049 31.8544C27.5589 31.9106 27.6066 31.9712 27.6456 32.0362C27.6672 32.1899 27.697 32.3009 27.5373 32.3998C27.3031 32.5448 27.0958 32.6011 26.9767 32.521C26.8555 32.4409 26.6563 32.3197 26.6563 32.3197C26.6563 32.3197 27.0568 32.9215 26.9767 33.0427C26.8967 33.1639 26.796 33.3938 26.5762 33.2829C26.336 33.1618 26.0157 32.9215 26.0157 32.9215C26.0157 32.9215 26.5145 33.512 26.4161 33.6444C26.248 33.8705 26.0957 33.8847 25.9356 33.7656C25.7754 33.6444 25.5352 33.4041 25.5352 33.4041C25.5352 33.4041 25.9356 34.0513 25.6257 34.2484C25.4737 34.3449 25.1715 34.4475 24.9312 34.2484ZM33.9963 44.4476C33.8924 44.4866 33.795 44.5385 33.689 44.5688L33.3707 44.664L33.0461 44.7312C32.9378 44.755 32.8274 44.7615 32.7171 44.7766C32.6067 44.7939 32.4963 44.7961 32.3858 44.8026L32.2192 44.8113L32.0526 44.809C31.8296 44.809 31.6088 44.7918 31.3859 44.7679C30.9443 44.7181 30.5049 44.6273 30.0763 44.5017C29.862 44.4411 29.6477 44.3675 29.4486 44.2852C29.3988 44.268 29.3447 44.2398 29.2971 44.2182C29.2386 44.19 29.1802 44.1705 29.1218 44.1532C29.0048 44.1207 28.8901 44.1034 28.7754 44.0861C28.5482 44.0558 28.3231 44.0385 28.1044 44.0039C27.8879 43.9692 27.6694 43.9216 27.5114 43.8155C27.3577 43.6965 27.2451 43.506 27.1564 43.3112C27.0698 43.1143 27.0027 42.9 26.9573 42.69L26.9486 42.6511L26.9161 42.625C26.8382 42.5666 26.6213 42.3251 26.5456 42.258C26.9525 42.3944 27.6701 42.1086 27.9796 41.8792C27.709 42.1498 27.4811 42.3413 27.3858 42.5015C27.2386 42.7526 27.1975 42.9237 27.2863 43.2008C27.388 43.5125 27.7711 43.9476 28.1283 43.9541C28.5872 43.9628 28.6088 43.3783 28.678 43.0515C28.6261 43.6056 29.8382 43.9844 30.2257 44.1771C30.3945 44.2615 30.5655 44.3459 30.7408 44.4173C31.8209 44.8524 33.0136 44.7484 34.1283 44.3891C34.085 44.4108 34.0417 44.4303 33.9963 44.4476ZM35.0829 39.3371C35.1154 39.4021 35.1413 39.467 35.1586 39.5406C35.256 39.9259 35.1088 40.7635 34.6413 40.7397C34.1738 40.716 33.9768 40.0385 34.3578 39.835C33.5114 40.2895 32.6196 40.8783 31.7019 41.1662C31.5244 41.2224 31.1786 41.3555 30.9558 41.3651C30.4536 41.3868 29.6215 41.4741 29.6304 40.7397C29.6365 40.2418 30.1434 39.7809 30.3209 39.4172C29.7733 39.7311 29.0525 40.2852 28.6152 40.7397C28.362 40.2722 28.1672 39.8954 28.1715 39.363C28.1729 39.1943 28.4573 38.796 28.414 38.6813C28.3663 38.5514 28.2624 38.4519 28.1715 38.348C27.7906 37.9259 27.5611 37.3891 27.2126 36.9388C26.8641 36.4886 26.3252 36.1077 25.7646 36.2072C25.4334 36.3934 25.3014 36.8046 25.2408 37.1942C25.2473 37.1293 25.2537 37.0666 25.2624 37.0038C25.2711 36.9193 25.2906 36.8306 25.31 36.7419L25.3684 36.4756C25.3836 36.3826 25.401 36.2916 25.4118 36.1986C25.4139 36.1812 25.4161 36.164 25.4182 36.1445C25.494 35.9908 25.5524 35.8393 25.5763 35.8393C25.6975 35.8393 26.0178 36.2548 26.4183 36.1337C26.8187 36.0124 27.7819 36.1748 28.0633 36.5752C28.1022 36.6293 28.165 36.6942 28.2473 36.7635C28.3404 36.9475 28.4204 37.125 28.4681 37.2657C28.6477 37.8047 28.6932 38.0731 28.6932 38.0731V37.1055C28.7127 37.125 28.7322 37.1423 28.7517 37.1618L28.8858 37.2765C28.927 37.3133 28.9702 37.3458 29.0092 37.3869C29.1693 37.5406 29.3144 37.7159 29.4529 37.8977C29.73 38.2613 29.9811 38.6488 30.2148 39.0406L30.2906 39.1683L30.3945 39.0601C30.4399 39.0125 30.4984 38.9583 30.5547 38.9129C30.611 38.8653 30.6716 38.8198 30.7322 38.7766C30.8534 38.6899 30.9811 38.6098 31.1131 38.5384C31.178 38.5017 31.2473 38.4713 31.3144 38.4389C31.3837 38.4107 31.4486 38.3804 31.5222 38.3544L31.5763 38.3349L31.5894 38.3306L31.5937 38.3285L31.6002 38.3263L31.6261 38.3198L31.7278 38.2917C31.7993 38.2808 31.8686 38.2635 31.9443 38.2592C32.0179 38.2527 32.0915 38.2484 32.1651 38.2484C32.2387 38.2462 32.3144 38.2527 32.3902 38.2549C32.5395 38.2657 32.6911 38.283 32.8404 38.309C32.9898 38.3328 33.1391 38.3675 33.2863 38.4021C33.4227 38.4345 33.5591 38.4735 33.6911 38.5168C33.689 38.5189 33.6867 38.5211 33.6846 38.5233C33.7236 38.532 33.7625 38.5428 33.8037 38.5536L33.8145 38.5579C34.3015 38.6791 34.7495 38.9562 35.0829 39.3371ZM36.8708 27.5447C36.8816 27.5318 36.8924 27.5188 36.9032 27.5058C36.8903 27.5231 36.8773 27.5426 36.8643 27.5599C36.8686 27.5556 36.8686 27.5491 36.8708 27.5447ZM36.7344 28.0339C36.8383 27.7721 36.9379 27.5404 37.005 27.3997C37.2127 27.1811 37.4509 26.9885 37.7085 26.8305C37.9963 26.6508 38.3059 26.5015 38.624 26.378C38.7431 26.3348 38.8621 26.2937 38.9833 26.2569C39.5115 26.205 40.0743 26.3564 40.3946 26.7786C40.5029 26.9213 40.5765 27.101 40.5613 27.2785C40.5115 27.8283 39.9618 28.3478 39.5158 28.5967C39.0677 28.8479 38.7453 29.008 38.2431 29.153C38.4119 29.2309 38.5159 29.311 38.6197 29.4561C38.6392 29.482 38.6976 29.6314 38.741 29.7482C38.5808 29.6638 38.4163 29.5557 38.3253 29.521C38.0634 29.4214 37.7907 29.3283 37.5223 29.2396C37.4552 29.218 37.1976 29.495 37.1219 29.5275C37.0482 29.5578 36.9682 29.5794 36.8837 29.5946C37.2864 29.337 37.6067 28.956 37.7863 28.5145C37.6716 28.6118 37.5569 28.7093 37.4422 28.8067C37.3426 28.8911 37.2431 28.9755 37.1219 29.0253C36.5547 29.2591 36.6045 28.5902 36.7344 28.0339ZM42.3947 30.573C42.2518 30.7634 41.4206 31.5362 41.1977 31.257C41.083 31.1119 41.0223 30.9691 40.9942 30.8846C41.0245 30.995 41.0764 31.2267 41.1067 31.5708C41.1327 31.8587 41.1436 32.0513 41.1479 32.1639C41.0981 32.3284 41.057 32.5318 41.0289 32.783L40.2691 34.1877L40.2496 34.1574L40.1695 34.2007C40.0678 34.2548 39.9639 34.3067 39.86 34.3565C39.7604 34.3674 39.6002 34.389 39.3578 34.4366C38.9098 34.5254 38.3708 34.4821 37.9682 34.3024C37.5656 34.1228 37.6089 33.6748 37.6089 33.6748C37.7604 33.6141 37.9357 33.5037 38.0959 33.4799C38.4055 33.4323 38.5288 33.5838 38.7691 33.8154C38.6781 33.6379 38.5873 33.4605 38.4964 33.2851C38.3296 32.9604 37.7431 33.1033 37.4293 33.1379C37.1132 33.1726 36.9335 32.9604 36.8729 32.8674C37.3318 32.7764 37.9508 32.6812 38.308 32.8803C37.9162 32.6639 37.4747 32.5318 37.0288 32.4994C36.9617 32.231 37.2799 31.9885 37.4314 31.7937C37.4314 31.7937 37.0288 32.0621 36.7582 31.9279C36.5656 31.8327 36.3037 31.8478 36.1695 31.8652C36.163 31.8565 36.1565 31.8478 36.15 31.8392C36.1435 31.8262 36.1392 31.7829 36.1478 31.7397C36.1543 31.6964 36.1695 31.6487 36.1846 31.6011C36.2171 31.508 36.2582 31.4149 36.2993 31.3219C36.3426 31.2288 36.3881 31.1357 36.4357 31.0448C36.4833 30.9496 36.5288 30.863 36.5742 30.7569C36.5829 30.7375 36.5937 30.7072 36.6024 30.6703C36.637 30.6422 36.6738 30.6228 36.7192 30.6184C37.2474 30.573 37.3881 31.3478 37.36 31.7115C37.3708 31.5752 37.9271 31.534 38.0137 31.6141L38.6868 32.2418C38.6868 32.2418 39.6695 33.0016 39.6739 33.0037C39.3687 32.7678 38.9011 32.3739 38.9119 31.9366C38.9227 31.5621 39.4574 31.2547 39.7172 31.0296C39.7172 31.0296 38.6673 31.073 38.6414 31.0751C38.5765 31.0773 38.3296 30.6487 38.2821 30.5816C38.5591 30.3457 38.6543 30.0664 38.9855 29.8976C39.2843 29.9084 39.5851 29.8911 39.8795 29.9453C40.2388 30.0102 40.6068 30.2137 40.7236 30.5578C40.6501 30.3392 41.07 29.8067 41.1999 29.6574C41.425 29.3997 41.7129 29.1508 42.07 29.1162C42.1956 29.1032 42.334 29.1379 42.4163 29.2309C42.4921 29.3153 42.5137 29.4366 42.531 29.5491C42.5852 29.8998 42.6068 30.2894 42.3947 30.573ZM44.4315 33.7223C44.4033 33.731 44.3774 33.7375 44.3514 33.7462C44.2843 33.7592 44.2151 33.7678 44.1392 33.7765C44.1349 33.7765 44.1328 33.7786 44.1284 33.7786C43.899 33.7051 43.3276 33.4951 43.0808 33.1423C42.7669 32.6942 42.8557 32.2461 42.8557 32.2461C43.0051 32.1704 43.2107 32.0037 43.3752 31.982C43.3903 31.9799 43.4077 31.9799 43.4272 31.982C43.622 32.2872 43.912 32.6963 44.1912 32.9367C44.6717 33.3435 44.6717 33.653 44.4315 33.7223ZM53.1589 42.8588C53.0745 42.9627 52.9879 43.0645 52.897 43.1597C52.5745 43.3394 51.9056 43.651 50.9641 43.7831C49.6069 43.9714 47.3428 43.4822 47.1545 43.3307C46.9661 43.1792 48.4749 42.5753 50.5116 42.0861C50.8493 42.0039 53.1957 41.3826 53.2195 41.9238C53.226 42.0688 53.1416 42.2008 53.0593 42.3198C52.8407 42.638 52.6069 42.9476 52.3602 43.2463C52.7996 42.7701 53.2823 42.335 53.8039 41.9476C53.6048 42.2592 53.3905 42.5688 53.1589 42.8588Z" fill="#301D1C"/>
<path d="M47.7908 25.5874L47.5596 25.6917C47.3758 25.7785 47.4996 26.0407 47.6844 25.9603L48.3344 25.7145C48.532 25.6159 48.3754 25.2416 48.186 25.3529C47.8374 23.8841 47.1893 22.6155 46.3631 21.5808C46.3404 21.5524 46.3075 21.5333 46.2708 21.527C46.2339 21.5207 46.1957 21.5277 46.1632 21.5465L45.7324 21.7987L45.7218 21.5733C45.7206 21.5477 45.7126 21.523 45.6984 21.5015C45.6843 21.48 45.6645 21.4626 45.6411 21.451C45.6177 21.4393 45.5914 21.4337 45.5648 21.4349C45.5382 21.436 45.5123 21.4438 45.4895 21.4575L45.0749 21.7057L45.3323 21.1432C45.3931 21.0096 45.4086 20.8616 45.3762 20.721C45.3439 20.5804 45.2655 20.4544 45.1527 20.3617C44.292 19.6622 43.1787 19.1234 42.0292 18.7809C41.9951 18.7704 41.958 18.772 41.9245 18.7853C41.8909 18.7985 41.863 18.8227 41.8456 18.8536L41.584 19.3153L41.5721 19.0889C41.5652 18.9568 41.5145 18.8313 41.4274 18.731C41.3403 18.6307 41.2214 18.5609 41.0885 18.5318C38.3409 17.9155 35.6204 18.337 33.2737 19.8432C33.2431 19.8629 33.1767 19.8849 33.1559 19.9267C33.1389 19.9609 33.1233 20.0332 33.1377 20.0652L33.4802 20.7652L33.1482 20.4191C33.0303 20.3425 32.8889 20.3055 32.7454 20.3136C32.6018 20.3217 32.4639 20.3745 32.3521 20.4641C31.1834 21.3899 30.5388 22.2597 30.5037 22.3355C30.4687 22.4114 30.4403 22.5233 30.5005 22.6089C30.5464 22.6742 30.5974 22.7018 30.6254 22.7125C30.6535 22.7232 30.6844 22.7256 30.7142 22.7194C32.8005 22.2546 34.0528 23.1945 34.0791 23.2159L35.3604 24.276C35.4083 24.3146 35.4892 24.3138 35.5532 24.2826C35.5643 24.2748 36.0943 23.8643 37.0315 23.5093C37.3307 23.6159 37.4642 23.7892 37.3376 24.1402C36.7722 24.4079 36.3866 24.6946 36.0036 25.1791C35.6206 25.6636 35.2504 26.3842 35.1337 26.9792C34.7657 27.0698 34.4287 27.3874 34.5029 27.7708C34.5277 27.8924 34.592 28.0024 34.6864 28.0851C34.7809 28.1677 34.9 28.2708 35.028 28.2829C35.042 28.4098 35.0625 28.4848 35.0884 28.6098C35.7425 31.7618 35.3676 32.6454 35.1291 33.6454C35.0553 33.8789 35.3798 33.9495 35.5556 33.8734C36.4094 33.504 36.2647 33.0528 36.1736 32.9071C36.0926 32.7777 36.0002 32.6413 36.0014 32.6385C35.9808 32.4743 35.9749 32.3064 35.9801 32.1386C36.0073 31.2659 36.386 30.2557 36.5186 29.9039L39.2935 28.8591C39.0794 29.2407 38.43 30.7324 38.153 31.0749C38.013 31.2511 37.9115 31.4524 37.8548 31.6665C37.8203 31.7964 37.8824 31.9285 37.9446 32.0606C37.9847 32.146 38.0249 32.2314 38.039 32.3163C38.3355 34.0863 38.0979 35.0361 37.8709 35.4009C37.8709 35.4009 37.7483 35.7055 37.6659 35.8478C37.5923 35.9747 37.5849 36.08 37.5983 36.123C37.6268 36.2142 37.6299 36.2947 37.7078 36.3522C37.7857 36.4098 37.8819 36.3382 37.9808 36.3413C38.0799 36.3444 38.1782 36.3178 38.2623 36.2652C39.0531 35.7712 39.5741 35.007 39.9351 34.0908C40.6177 32.8805 39.8912 31.3626 40.2204 30.3345C40.2807 30.1016 40.7966 29.4681 41.8709 29.8451C42.8093 30.3061 42.9334 30.8605 43.1375 31.1459C43.3421 31.5875 43.3421 31.5875 43.3421 31.5875L44.8865 32.1275C44.9496 32.1307 45.0129 32.1218 45.073 32.1013C45.133 32.0809 45.1885 32.0493 45.2364 32.0084C45.2843 31.9675 45.3236 31.918 45.3521 31.8628C45.3805 31.8076 45.3975 31.7478 45.4022 31.6868C45.4069 31.6257 45.4003 31.4604 45.3805 31.4028C45.3607 31.3453 45.3292 31.2923 45.2879 31.2469C45.2466 31.2014 45.1963 31.1646 45.1399 31.1384C45.0834 31.112 45.0219 31.0969 44.9588 31.0937L44.6314 31.0252C44.4589 30.8134 44.336 29.8429 44.2808 28.9177C44.2649 28.6509 44.25 28.401 44.2339 28.1947C44.2993 28.1898 44.3634 28.1723 44.4223 28.1432C44.4811 28.1141 44.5337 28.0742 44.5769 28.0256C44.62 27.977 44.6529 27.9207 44.6736 27.8601C44.6942 27.7996 44.7033 27.6317 44.6982 27.5687L44.6861 27.4268C44.6806 27.3638 44.6628 27.2507 44.6324 27.1951C44.6021 27.1397 44.5605 27.0909 44.51 27.0516C44.4595 27.0123 44.4012 26.9835 44.3384 26.9665C44.2758 26.9496 44.2099 26.9451 44.1447 26.9531C43.9782 25.8262 43.3774 25.1802 42.6703 24.6815C42.585 24.2916 42.7455 23.9876 43.2189 23.98C45.0185 25.163 45.5455 27.0598 45.7751 28.0043C45.7808 28.0278 45.7925 28.0495 45.8092 28.0675C45.8257 28.0855 45.8467 28.0991 45.8703 28.1072C45.8885 28.1137 46.3381 28.2825 46.305 28.8439C46.305 30.0295 46.5906 30.8412 47.1046 31.5446C47.2489 31.592 48.4845 31.5446 48.4845 31.5446C48.1908 30.5706 48.2112 29.6058 48.3023 28.5492C48.3649 27.8214 48.4273 27.0978 48.3008 26.3325C48.2983 26.313 48.2918 26.2944 48.2817 26.2774C48.2717 26.2605 48.2582 26.2458 48.2421 26.2342C48.2261 26.2225 48.2076 26.2141 48.188 26.2094C48.1683 26.2048 48.1478 26.2039 48.1277 26.207C48.1075 26.2101 48.0881 26.217 48.0705 26.2273C48.0529 26.2376 48.0376 26.2512 48.0254 26.2671C48.0131 26.2831 48.0043 26.3013 47.9993 26.3204C47.9943 26.3395 47.9932 26.3594 47.9962 26.3788" stroke="#B49664" stroke-width="0.680272"/>
<path d="M30.8869 22.4135C32.5518 22.0962 33.9072 22.3545 35.4076 24.078C35.4076 24.078 37.1766 22.9876 38.357 22.8436C39.8326 22.6635 41.6605 22.6844 43.1592 23.6234C44.2256 24.2915 45.3659 25.2318 46.0956 27.9504C46.5271 28.0626 46.8037 28.4125 46.6729 29.0954C46.5092 29.949 47.379 32.505 48.8936 32.7357C48.1198 31.7602 47.8357 30.273 47.9999 29.1823C48.1554 28.1501 48.1057 27.2404 48.0537 26.2883C47.8534 24.4647 46.4244 21.5456 46.0978 21.7842C45.8357 21.9322 45.3567 22.3882 45.5205 21.6753C45.2339 21.7345 44.7527 22.3529 44.6638 22.1731C44.6534 21.9835 44.9697 21.6113 45.2337 20.84C44.1451 19.7638 42.0287 18.8164 41.9375 19.0139C41.526 19.9055 41.3391 19.86 41.2835 18.8432C38.2542 17.9079 34.372 19.0773 33.4946 20.0641C33.9576 21.4111 34.0446 21.3006 32.8879 20.554C30.7611 22.1976 30.8869 22.4135 30.8869 22.4135Z" fill="#6A0101"/>
<path d="M35.5005 24.1806C35.4719 24.201 35.4372 24.2115 35.4021 24.2103C35.3671 24.2091 35.3337 24.1963 35.3076 24.1741L34.1871 23.2165C34.1607 23.195 32.8557 22.1514 30.7693 22.6163C30.7395 22.6224 30.7086 22.62 30.6806 22.6093C30.6526 22.5986 30.6286 22.5801 30.6117 22.5561C30.5948 22.5321 30.5857 22.5036 30.5856 22.4742C30.5854 22.4449 30.5942 22.4159 30.6109 22.391C30.6358 22.3547 31.2362 21.4953 32.4049 20.5695C32.5166 20.4799 32.6546 20.4271 32.7982 20.4189C32.9417 20.4108 33.0831 20.4479 33.201 20.5245L33.4676 20.6966L33.2145 20.1342C33.2001 20.1022 33.198 20.066 33.2087 20.0321C33.2193 19.9983 33.242 19.9689 33.2726 19.9492C35.6193 18.443 38.2859 18.0221 41.0334 18.6384C41.1664 18.6674 41.2852 18.7373 41.3723 18.8376C41.4594 18.9379 41.5101 19.0634 41.517 19.1955L41.529 19.4218L41.7905 18.9602C41.8079 18.9293 41.8358 18.9052 41.8694 18.8918C41.903 18.8785 41.94 18.877 41.9741 18.8875C43.1236 19.23 44.1829 19.7694 45.0436 20.4689C45.1565 20.5616 45.2348 20.6875 45.2672 20.8281C45.2995 20.9688 45.2841 21.1168 45.2233 21.2503L44.966 21.8129L45.3804 21.5646C45.4032 21.551 45.4292 21.5432 45.4558 21.542C45.4824 21.5409 45.5087 21.5464 45.5321 21.5581C45.5555 21.5698 45.5752 21.5872 45.5894 21.6087C45.6035 21.6301 45.6116 21.6549 45.6127 21.6805L45.6233 21.9059L46.0542 21.6537C46.0867 21.6348 46.1249 21.6279 46.1617 21.6342C46.1985 21.6404 46.2314 21.6596 46.254 21.6879C47.0803 22.7227 47.6745 23.9919 48.023 25.4606C48.2124 25.3493 48.3703 25.6194 48.1727 25.718L47.6306 25.9627C47.4457 26.043 47.3219 25.7808 47.5058 25.694L47.7369 25.5897C47.4116 24.1871 46.8583 22.9721 46.0906 21.9761L45.5587 22.2873C45.5357 22.3003 45.51 22.3077 45.4836 22.3085C45.4573 22.3093 45.4313 22.3035 45.4082 22.2918C45.3851 22.2802 45.3656 22.263 45.3515 22.2417C45.3374 22.2206 45.3292 22.1961 45.3277 22.1708L45.3173 21.9484L44.7059 22.3143C44.5831 22.393 44.4231 22.2594 44.4869 22.1311L44.9425 21.1354C44.9767 21.0608 44.9854 20.9781 44.9676 20.8996C44.9497 20.8209 44.9061 20.7504 44.8432 20.6985C44.0428 20.049 43.0674 19.5412 41.9968 19.2084L41.5379 20.0195C41.5216 20.0479 41.4964 20.0708 41.466 20.0845C41.4355 20.0983 41.4014 20.1021 41.3689 20.0956C41.3365 20.0891 41.3073 20.0724 41.2859 20.0482C41.2645 20.024 41.2519 19.9935 41.2502 19.9614L41.2102 19.2174C41.2066 19.1486 41.1801 19.0833 41.1347 19.0311C41.0892 18.979 41.0273 18.9427 40.958 18.9278C37.6374 18.1853 35.1123 19.1507 33.549 20.1257L33.9615 21.0427C34.025 21.1726 33.8539 21.3121 33.733 21.2286L33.0267 20.7725C32.963 20.7312 32.8866 20.7113 32.8091 20.7158C32.7316 20.7203 32.6571 20.749 32.5969 20.7974C32.0465 21.2318 31.5438 21.7201 31.0972 22.2542C32.8249 21.9974 33.9709 22.6882 34.2969 22.9187C34.7822 22.5973 36.9922 21.2321 39.5991 21.177C39.6194 21.1764 39.6396 21.1796 39.6584 21.1866C39.6773 21.1936 39.6944 21.2041 39.7089 21.2176C39.7234 21.2311 39.7348 21.2472 39.7426 21.2652C39.7505 21.2832 39.7545 21.3025 39.7545 21.3222C39.7545 21.3418 39.7504 21.3614 39.7426 21.3797C39.7347 21.398 39.7233 21.4147 39.7088 21.4288C39.6943 21.4429 39.6771 21.4541 39.6583 21.4619C39.6394 21.4697 39.6193 21.4738 39.5989 21.474C37.2206 21.5243 35.1239 22.745 34.5395 23.1165L35.425 23.8732C40.0882 21.0396 45.1053 23.0768 46.1653 27.8603C46.4064 27.9776 46.7532 28.2921 46.7201 28.8549C46.6927 29.79 47.2743 31.7632 48.4587 32.4236C48.0536 31.8169 47.4354 30.6224 47.2714 28.8107C47.273 28.7825 47.2367 27.4936 46.5447 25.9734C45.9263 24.5783 44.457 22.6373 41.6898 21.7624C41.6708 21.7564 41.6532 21.7468 41.6381 21.7341C41.6231 21.7215 41.6108 21.7061 41.602 21.6887C41.5932 21.6713 41.5881 21.6524 41.5869 21.633C41.5858 21.6135 41.5886 21.5939 41.5952 21.5754C41.6522 21.4312 41.8033 21.4741 41.9158 21.5206C45.3777 22.5861 47.4545 25.8787 47.5776 28.7831C47.6205 29.2638 47.7036 29.7394 47.826 30.2054C47.7401 28.8314 48.1113 27.6908 47.8884 26.3817C47.8854 26.3623 47.8864 26.3425 47.8914 26.3233C47.8964 26.3041 47.9053 26.2861 47.9175 26.2701C47.9297 26.2541 47.9451 26.2406 47.9627 26.2302C47.9802 26.2199 47.9997 26.213 48.0198 26.2099C48.04 26.2068 48.0604 26.2077 48.0801 26.2123C48.0998 26.217 48.1182 26.2254 48.1343 26.2371C48.1504 26.2487 48.1638 26.2635 48.1739 26.2803C48.184 26.2972 48.1904 26.316 48.1929 26.3354C48.5033 28.2118 47.6777 29.838 48.4963 31.8874C48.7924 32.4168 49.0435 32.6846 49.0489 32.6902C49.1552 32.7928 49.0328 32.9826 48.8886 32.9352C47.1251 32.4608 46.3934 30.0326 46.4129 28.8445C46.4459 28.283 45.9964 28.1142 45.9782 28.1077C45.9546 28.0996 45.9336 28.086 45.917 28.068C45.9005 28.0501 45.8888 28.0283 45.883 28.0048C45.6535 27.0603 44.9664 25.009 43.1668 23.8259C42.6933 23.8335 42.4772 24.2946 42.5625 24.6844C43.2695 25.183 43.8691 25.9334 44.0357 27.0603C44.1008 27.0522 44.1667 27.0568 44.2294 27.0737C44.2922 27.0906 44.3505 27.1195 44.401 27.1588C44.4515 27.198 44.4931 27.2469 44.5234 27.3023C44.5538 27.3578 44.5722 27.4188 44.5776 27.4818L44.5898 27.6237C44.5949 27.6867 44.5869 27.7504 44.5662 27.8109C44.5456 27.8715 44.5128 27.9277 44.4697 27.9763C44.4265 28.0249 44.3739 28.0649 44.315 28.094C44.2561 28.123 44.1921 28.1405 44.1267 28.1454C44.1987 29.0673 44.2462 30.8601 44.4684 31.133L44.7964 31.1494C44.8595 31.1526 44.921 31.1677 44.9775 31.1939C45.034 31.2202 45.0842 31.2571 45.1255 31.3025C45.1668 31.3478 45.1983 31.4009 45.2181 31.4585C45.2379 31.5161 45.2457 31.5771 45.241 31.6381C45.2363 31.6992 45.2193 31.759 45.1908 31.8141C45.1624 31.8693 45.1231 31.9188 45.0753 31.9597C45.0274 32.0007 44.9718 32.0323 44.9118 32.0527C44.8517 32.0731 44.7883 32.0821 44.7253 32.0789L43.2835 32.0069C43.0756 31.9958 42.8753 31.9334 42.7017 31.8254C42.5281 31.7174 42.3872 31.5676 42.2923 31.3902C42.1195 31.065 41.6617 30.3254 41.144 30.4803C41.1095 30.4897 41.0775 30.5066 41.0503 30.5295C41.0232 30.5525 41.0017 30.581 40.9874 30.6128C40.8269 30.9162 40.896 31.6228 41.1554 32.3307C41.2771 32.6598 41.2726 33.0226 41.1427 33.3541C40.8497 34.094 40.0571 35.5241 38.0407 36.7907C37.9565 36.8432 37.8583 36.8697 37.7592 36.8666C37.6602 36.8636 37.5653 36.831 37.4874 36.7734C37.4095 36.7158 37.3524 36.636 37.3239 36.5448C37.2955 36.4536 37.297 36.3555 37.3283 36.2639C37.3325 36.2516 37.7319 35.0003 37.2839 32.3263C37.248 32.1101 37.2587 31.888 37.3154 31.6741C37.3722 31.4601 37.4737 31.2587 37.6137 31.0825C37.8906 30.74 38.1375 30.376 38.3515 29.9944L36.7807 30.5803C36.7203 30.7775 36.5551 31.458 36.7027 32.6325C36.7059 32.6583 36.7021 32.6845 36.6915 32.7087C36.6816 32.7314 36.4388 33.2681 35.5035 33.7193C35.4761 33.732 35.4456 33.7367 35.4159 33.7329C35.3862 33.7292 35.3585 33.7171 35.336 33.6982C35.3136 33.6793 35.2975 33.6543 35.2897 33.6264C35.2819 33.5985 35.2828 33.5688 35.2922 33.5411C35.2984 33.5236 35.9043 31.7617 35.2503 28.6098C35.2243 28.4847 35.2044 28.3576 35.1904 28.2307C35.0625 28.2186 34.9427 28.1676 34.8483 28.085C34.7538 28.0023 34.6896 27.8923 34.6647 27.7707C34.5904 27.3873 34.8731 27.1224 35.241 27.0319C35.3577 26.4368 35.6183 25.8738 36.0013 25.3894C36.3843 24.9049 36.8788 24.5127 37.4442 24.245C37.5709 23.894 37.3231 23.5726 37.0327 23.4068C36.0919 23.7632 35.5071 24.176 35.5005 24.1806ZM42.8026 23.6074C41.141 22.6327 38.5728 22.8155 37.3847 23.2825C37.6292 23.4781 37.8113 23.7852 37.7813 24.0991C39.2393 23.5288 40.8982 23.6983 42.2374 24.476C42.2489 24.1312 42.4548 23.7443 42.8026 23.6074ZM36.6058 30.3295L38.6014 29.5862C38.6295 29.5761 38.6598 29.5741 38.6887 29.5803C38.7176 29.5866 38.7438 29.6007 38.7643 29.6211C38.7847 29.6415 38.7986 29.6673 38.804 29.6955C38.8095 29.7235 38.8065 29.7528 38.7953 29.7796C38.5543 30.3328 38.1518 30.8905 37.8566 31.2609C37.7428 31.4043 37.6601 31.5681 37.614 31.7422C37.5678 31.9164 37.5591 32.097 37.5884 32.273C38.0531 35.0474 37.6254 36.3386 37.6211 36.3513C37.5662 36.4954 37.7459 36.6313 37.8783 36.543C39.8067 35.3336 41.2446 33.3933 40.8665 32.4358C40.643 31.8258 40.4693 30.9484 40.7154 30.4829C40.7489 30.4146 40.797 30.3538 40.8566 30.3045C40.9161 30.2551 40.9855 30.2185 41.0603 30.1971C41.5875 30.0394 42.1228 30.4134 42.5674 31.2503C42.6382 31.3827 42.7435 31.4945 42.873 31.5752C43.0025 31.6558 43.152 31.7025 43.3072 31.7107L44.749 31.7827C44.9737 31.791 45.0059 31.4622 44.7749 31.4465L43.333 31.3745C43.2376 31.3694 43.1456 31.3407 43.066 31.2911C42.9863 31.2415 42.9216 31.1727 42.8781 31.0912C42.3494 30.0963 41.6698 29.6648 40.9643 29.8759C39.8264 30.1897 40.3492 32.1113 40.5381 32.5547C40.6081 32.7427 40.6061 32.9501 40.5324 33.1398C40.3149 33.6889 39.7417 34.7665 38.3459 35.8143C38.3218 35.8319 38.2932 35.8424 38.2634 35.8446C38.2336 35.8469 38.204 35.8408 38.178 35.8271C38.1522 35.8134 38.1311 35.7926 38.1173 35.7673C38.1036 35.742 38.0978 35.7132 38.1007 35.6845C38.1779 35.0201 38.2115 33.8784 37.9326 32.2123C37.911 32.0821 37.9174 31.9483 37.9516 31.8194C37.9857 31.6904 38.0469 31.5691 38.1312 31.463C38.4294 31.1283 39.5717 29.4503 39.2643 29.0694C39.2408 29.0514 39.2129 29.0398 39.1832 29.0355C39.1534 29.0312 39.1228 29.0345 39.0944 29.045L36.4874 30.0162C36.4441 30.0324 36.4089 30.0645 36.3894 30.1053C36.37 30.1461 36.368 30.1923 36.3836 30.2338C36.3994 30.2753 36.4316 30.3087 36.4734 30.3268C36.515 30.3448 36.5625 30.3455 36.6058 30.3295ZM35.6776 33.288C36.1472 33.0018 36.3386 32.7208 36.3922 32.6292C36.2687 31.6036 36.3731 30.9431 36.4507 30.6295C35.9834 30.555 35.9271 29.9029 36.3821 29.7387L38.9887 28.768C39.3175 28.6337 39.6937 28.9236 39.6292 29.262C39.498 30.0891 38.8734 31.012 38.3726 31.6405C38.3143 31.7138 38.2721 31.7977 38.2485 31.8867C38.2249 31.9758 38.2205 32.0681 38.2355 32.1581C38.4766 33.5976 38.4884 34.6578 38.438 35.3634C39.5723 34.4337 40.0545 33.5206 40.2453 33.0387C40.2927 32.9154 40.2935 32.7808 40.2477 32.6589C40.1121 32.2887 39.7031 31.0178 40.1326 30.2045C40.2071 30.0587 40.3119 29.9289 40.4405 29.8234C40.569 29.7179 40.7184 29.6391 40.879 29.592C41.7418 29.3338 42.549 29.8163 43.1518 30.9507C43.1713 30.9872 43.2001 31.018 43.2358 31.0402C43.2715 31.0624 43.3126 31.0753 43.3553 31.0776L44.1239 31.1162C43.938 30.7278 43.8927 29.079 43.8198 28.1594C40.7046 28.233 39.081 26.944 35.4952 28.1854C36.0002 30.417 35.8784 32.7293 35.6776 33.288ZM35.1598 27.3753C35.0859 27.4026 35.0252 27.4566 34.991 27.5258C34.9568 27.5949 34.9517 27.6737 34.9768 27.7452C35.0019 27.8166 35.0553 27.8751 35.1255 27.9079C35.1956 27.9408 35.2769 27.9454 35.3519 27.9209C36.3873 27.577 38.4106 27.0632 40.3302 27.4884C42.1542 27.8922 43.4808 27.8883 44.1093 27.8499C44.134 27.8485 44.1583 27.8423 44.1805 27.8315C44.2028 27.8208 44.2227 27.8058 44.2389 27.7876C44.3126 27.7218 44.274 27.5942 44.272 27.513C44.2683 27.4676 44.2465 27.4259 44.2113 27.3963C44.176 27.3669 44.1299 27.352 44.0828 27.355C43.5913 27.3856 42.4664 27.3672 40.4557 26.8989C38.2414 26.3832 36.0145 27.0603 35.1598 27.3753ZM35.7793 26.3366C35.695 26.5259 35.6277 26.7215 35.5782 26.9213C39.1493 25.761 40.7106 26.9592 43.7261 27.0674C43.0006 23.324 37.1742 23.0689 35.7793 26.3366Z" fill="#301D1C"/>
<path d="M35.7793 26.3366C35.695 26.5258 35.6277 26.7214 35.5782 26.9213C39.1493 25.7609 40.7106 26.9591 43.7261 27.0674C43.0006 23.324 37.1742 23.0689 35.7793 26.3366Z" fill="#B49664"/>
<path d="M35.6775 33.2881C36.1471 33.0019 36.3385 32.7208 36.3921 32.6293C36.2686 31.6036 36.373 30.9432 36.4506 30.6295C35.9834 30.555 35.927 29.9029 36.382 29.7388L38.9886 28.768C39.3174 28.6337 39.6936 28.9237 39.6291 29.262C39.4979 30.0892 38.8733 31.012 38.3725 31.6405C38.3142 31.7139 38.272 31.7977 38.2484 31.8867C38.2248 31.9758 38.2204 32.0682 38.2354 32.1581C38.4765 33.5976 38.4883 34.6578 38.4379 35.3634C39.5722 34.4338 40.0544 33.5206 40.2452 33.0387C40.2926 32.9154 40.2935 32.7808 40.2476 32.6589C40.112 32.2887 39.703 31.0178 40.1325 30.2046C40.207 30.0588 40.3118 29.9289 40.4404 29.8234C40.5689 29.7179 40.7183 29.6391 40.8789 29.592C41.7417 29.3338 42.5489 29.8163 43.1517 30.9507C43.1712 30.9872 43.2 31.018 43.2358 31.0403C43.2714 31.0625 43.3125 31.0754 43.3552 31.0777L44.1238 31.1162C43.9379 30.7278 43.8927 29.079 43.8197 28.1595C40.7045 28.233 39.0809 26.944 35.4951 28.1854C36.0002 30.417 35.8784 32.7293 35.6775 33.2881Z" fill="#B49664"/>
<path d="M35.1599 27.3753C35.0859 27.4026 35.0252 27.4566 34.991 27.5258C34.9568 27.5949 34.9517 27.6737 34.9768 27.7451C35.002 27.8166 35.0553 27.875 35.1255 27.9079C35.1956 27.9407 35.2769 27.9454 35.3519 27.9209C36.3873 27.577 38.4106 27.0632 40.3302 27.4884C42.1542 27.8922 43.4809 27.8882 44.1094 27.8499C44.134 27.8485 44.1583 27.8423 44.1805 27.8315C44.2028 27.8208 44.2227 27.8058 44.2389 27.7876C44.3126 27.7218 44.274 27.5942 44.272 27.5129C44.2684 27.4676 44.2466 27.4258 44.2113 27.3963C44.176 27.3669 44.13 27.352 44.0829 27.355C43.5913 27.3856 42.4664 27.3671 40.4557 26.8989C38.2414 26.3832 36.0145 27.0603 35.1599 27.3753Z" fill="#B49664"/>
<path d="M36.6058 30.3295L38.6014 29.5861C38.6295 29.5761 38.6598 29.5741 38.6887 29.5803C38.7175 29.5865 38.7438 29.6007 38.7642 29.6211C38.7847 29.6415 38.7985 29.6673 38.804 29.6954C38.8095 29.7235 38.8065 29.7528 38.7952 29.7796C38.5542 30.3328 38.1517 30.8905 37.8565 31.2609C37.7427 31.4043 37.6601 31.5681 37.6139 31.7422C37.5678 31.9163 37.559 32.097 37.5883 32.273C38.0531 35.0474 37.6254 36.3386 37.6211 36.3512C37.5662 36.4954 37.7459 36.6313 37.8782 36.543C39.8067 35.3335 41.2445 33.3933 40.8665 32.4358C40.6429 31.8258 40.4693 30.9484 40.7154 30.4829C40.7489 30.4146 40.7969 30.3538 40.8565 30.3044C40.916 30.2551 40.9854 30.2185 41.0602 30.1971C41.5875 30.0394 42.1227 30.4133 42.5674 31.2503C42.6382 31.3827 42.7434 31.4945 42.8729 31.5752C43.0025 31.6558 43.1519 31.7024 43.3071 31.7107L44.749 31.7827C44.9736 31.791 45.0058 31.4622 44.7748 31.4465L43.333 31.3745C43.2375 31.3694 43.1456 31.3407 43.066 31.291C42.9863 31.2415 42.9216 31.1727 42.878 31.0912C42.3493 30.0963 41.6697 29.6648 40.9642 29.8759C39.8263 30.1897 40.3492 32.1113 40.5381 32.5547C40.6081 32.7427 40.606 32.95 40.5324 33.1398C40.3148 33.6889 39.7417 34.7665 38.3459 35.8143C38.3218 35.8319 38.2932 35.8424 38.2633 35.8446C38.2336 35.8469 38.2039 35.8408 38.178 35.827C38.1521 35.8134 38.131 35.7926 38.1173 35.7673C38.1035 35.742 38.0978 35.7132 38.1007 35.6845C38.1779 35.0201 38.2115 33.8784 37.9326 32.2123C37.9109 32.082 37.9173 31.9483 37.9515 31.8194C37.9856 31.6904 38.0468 31.5691 38.1311 31.4629C38.4293 31.1283 39.5716 29.4503 39.2642 29.0694C39.2408 29.0514 39.2129 29.0398 39.1831 29.0355C39.1534 29.0312 39.1227 29.0345 39.0943 29.045L36.4873 30.0162C36.444 30.0324 36.4088 30.0645 36.3894 30.1053C36.37 30.1461 36.3679 30.1923 36.3836 30.2338C36.3993 30.2753 36.4316 30.3087 36.4733 30.3268C36.515 30.3448 36.5624 30.3455 36.6058 30.3295Z" fill="#B49664"/>
<path d="M42.8025 23.6073C41.1409 22.6327 38.5727 22.8155 37.3846 23.2825C37.6291 23.4781 37.8112 23.7852 37.7812 24.0991C39.2392 23.5288 40.8982 23.6983 42.2373 24.476C42.2488 24.1311 42.4547 23.7442 42.8025 23.6073Z" fill="#B49664"/>
<path d="M40.593 21.3844C40.5357 21.1799 40.8509 21.0857 40.9153 21.2879C40.9726 21.4925 40.6574 21.5867 40.593 21.3844Z" fill="#301D1C"/>
<path d="M39.7728 66.3713C57.1991 66.3713 71.3258 52.2445 71.3258 34.8182C71.3258 17.3919 57.1991 3.26514 39.7728 3.26514C22.3465 3.26514 8.21973 17.3919 8.21973 34.8182C8.21973 52.2445 22.3465 66.3713 39.7728 66.3713Z" stroke="black" stroke-width="0.666667"/>
<path d="M70.0389 34.8968C70.0389 35.0973 69.9188 35.2597 69.7706 35.2597H60.9293C60.7811 35.2597 60.661 35.0973 60.661 34.8968V34.655C60.661 34.4545 60.7811 34.2921 60.9293 34.2921H69.7706C69.9188 34.2921 70.0389 34.4545 70.0389 34.655V34.8968Z" fill="#B49664"/>
<path d="M70.0378 34.9008C70.0368 35.0193 69.9142 35.0467 69.8823 34.9363C69.8506 34.8264 69.7826 34.7251 69.6391 34.7251C63.1901 34.7251 61.4168 34.7224 60.9267 34.7258C60.7194 34.7272 60.7027 34.2921 60.9282 34.2921H69.7695C69.9177 34.2921 70.0378 34.4546 70.0378 34.655C70.0378 34.6581 70.0378 34.8976 70.0378 34.9008Z" fill="#CAB085"/>
<path d="M68.4059 36.889H68.7668C68.9943 36.8888 69.1789 36.7042 69.179 36.4767V33.0755C69.1789 32.8479 68.9943 32.6634 68.7668 32.6632H68.4059C68.1782 32.6632 67.9937 32.8478 67.9937 33.0755V32.4056C67.9937 32.1778 67.8091 31.9933 67.5814 31.9933H66.9631C66.7353 31.9933 66.5508 32.1778 66.5508 32.4056V37.1466C66.5508 37.3744 66.7353 37.5589 66.9631 37.5589H67.5814C67.8091 37.5589 67.9937 37.3744 67.9937 37.1466V36.4767C67.9937 36.7044 68.1782 36.8889 68.4059 36.889Z" fill="#301D1C"/>
<path d="M67.0314 37.1571C67.0314 37.4679 66.5503 37.4926 66.5503 37.1471V32.4059C66.5503 32.1782 66.7348 31.9937 66.9626 31.9937H67.5809C67.9182 31.9937 67.8954 32.4748 67.5845 32.4747H67.4437C67.216 32.4747 67.0314 32.6592 67.0314 32.8869V37.1571Z" fill="#4A3D3C"/>
<path d="M68.3472 36.4854C68.3472 36.71 68.009 36.7258 67.9952 36.5017C67.9938 36.4788 67.9944 33.0701 67.9944 33.0748C67.9944 32.8471 68.179 32.6625 68.4067 32.6625H68.7675C69.112 32.6625 69.0887 33.1413 68.7792 33.1434C68.7663 33.1435 68.7594 33.1436 68.7594 33.1436C68.5318 33.1436 68.3472 33.3281 68.3472 33.5558V36.4854Z" fill="#4A3D3C"/>
<path d="M64.1322 37.1466V32.4056C64.1322 32.1778 63.9477 31.9933 63.72 31.9933H63.1016C62.874 31.9933 62.6893 32.1778 62.6893 32.4056V33.0755C62.6893 32.8478 62.5048 32.6632 62.2771 32.6632H61.9162C61.6887 32.6634 61.5042 32.8479 61.504 33.0755V36.4767C61.5042 36.7042 61.6887 36.8888 61.9162 36.889H62.2771C62.5048 36.889 62.6893 36.7044 62.6893 36.4767V37.1466C62.6893 37.3744 62.874 37.5589 63.1016 37.5589H63.72C63.9477 37.5589 64.1322 37.3744 64.1322 37.1466Z" fill="#301D1C"/>
<path d="M63.6515 37.1571C63.6515 37.4679 64.1326 37.4926 64.1326 37.1471V32.4059C64.1326 32.1782 63.948 31.9937 63.7203 31.9937H63.102C62.7647 31.9937 62.7875 32.4748 63.0983 32.4747H63.2392C63.4669 32.4747 63.6515 32.6592 63.6515 32.8869V37.1571Z" fill="#4A3D3C"/>
<path d="M62.3357 36.4854C62.3357 36.71 62.6739 36.7258 62.6877 36.5017C62.6892 36.4788 62.6885 33.0701 62.6885 33.0748C62.6885 32.8471 62.5039 32.6625 62.2762 32.6625H61.9154C61.5709 32.6625 61.5942 33.1413 61.9037 33.1434C61.9166 33.1435 61.9235 33.1436 61.9235 33.1436C62.1511 33.1436 62.3357 33.3281 62.3357 33.5558V36.4854Z" fill="#4A3D3C"/>
<path d="M18.9016 34.9511C18.9016 35.1516 18.7815 35.314 18.6333 35.314H9.79199C9.6438 35.314 9.52368 35.1516 9.52368 34.9511V34.7093C9.52368 34.5089 9.6438 34.3464 9.79199 34.3464H18.6333C18.7815 34.3464 18.9016 34.5089 18.9016 34.7093V34.9511Z" fill="#B49664"/>
<path d="M18.9003 34.9552C18.8994 35.0737 18.7767 35.1011 18.7448 34.9907C18.7132 34.8809 18.6452 34.7794 18.5016 34.7794C12.0527 34.7794 10.2794 34.7768 9.78922 34.7802C9.58201 34.7817 9.5653 34.3465 9.79073 34.3466H18.6321C18.7802 34.3466 18.9004 34.509 18.9004 34.7094C18.9004 34.7125 18.9004 34.9521 18.9003 34.9552Z" fill="#CAB085"/>
<path d="M17.2685 36.9433H17.6293C17.8568 36.9432 18.0414 36.7586 18.0415 36.531V33.1299C18.0414 32.9023 17.8568 32.7178 17.6293 32.7176H17.2685C17.0408 32.7176 16.8562 32.9022 16.8562 33.1299V32.4599C16.8562 32.2322 16.6716 32.0476 16.4439 32.0476H15.8255C15.5979 32.0476 15.4133 32.2322 15.4133 32.4599V37.201C15.4133 37.4287 15.5979 37.6133 15.8255 37.6133H16.4439C16.6716 37.6133 16.8562 37.4287 16.8562 37.201V36.531C16.8562 36.7588 17.0408 36.9433 17.2685 36.9433Z" fill="#301D1C"/>
<path d="M15.8939 37.2114C15.8939 37.5222 15.4128 37.5469 15.4128 37.2013V32.4603C15.4128 32.2325 15.5974 32.048 15.8251 32.048H16.4434C16.7807 32.048 16.758 32.5291 16.4471 32.5291L16.3062 32.529C16.0785 32.529 15.8939 32.7135 15.8939 32.9412V37.2114Z" fill="#4A3D3C"/>
<path d="M17.2097 36.5398C17.2097 36.7643 16.8716 36.7801 16.8577 36.556C16.8563 36.5331 16.857 33.1244 16.857 33.1291C16.857 32.9013 17.0416 32.7168 17.2692 32.7168H17.6301C17.9746 32.7168 17.9513 33.1956 17.6417 33.1977C17.6289 33.1978 17.622 33.1979 17.622 33.1979C17.3944 33.1979 17.2097 33.3824 17.2097 33.6102V36.5398Z" fill="#4A3D3C"/>
<path d="M12.9947 37.201V32.4599C12.9947 32.2322 12.8102 32.0476 12.5824 32.0476H11.9641C11.7364 32.0476 11.5518 32.2322 11.5518 32.4599V33.1299C11.5518 32.9022 11.3673 32.7176 11.1396 32.7176H10.7787C10.5512 32.7178 10.3666 32.9023 10.3665 33.1299V36.531C10.3666 36.7586 10.5512 36.9432 10.7787 36.9433H11.1396C11.3673 36.9433 11.5518 36.7588 11.5518 36.531V37.201C11.5518 37.4287 11.7364 37.6133 11.9641 37.6133H12.5824C12.8102 37.6133 12.9947 37.4287 12.9947 37.201Z" fill="#301D1C"/>
<path d="M12.5139 37.2114C12.5139 37.5222 12.995 37.5469 12.995 37.2013V32.4603C12.995 32.2325 12.8105 32.048 12.5827 32.048H11.9644C11.6271 32.048 11.6499 32.5291 11.9608 32.5291L12.1016 32.529C12.3293 32.529 12.5139 32.7135 12.5139 32.9412V37.2114Z" fill="#4A3D3C"/>
<path d="M11.1983 36.5398C11.1983 36.7643 11.5364 36.7801 11.5503 36.556C11.5516 36.5331 11.5511 33.1244 11.5511 33.1291C11.5511 32.9013 11.3665 32.7168 11.1388 32.7168H10.778C10.4335 32.7168 10.4568 33.1956 10.7663 33.1977C10.7792 33.1978 10.786 33.1979 10.786 33.1979C11.0137 33.1979 11.1983 33.3824 11.1983 33.6102V36.5398Z" fill="#4A3D3C"/>
<path d="M59.3816 34.8176C59.3816 45.6476 50.6022 54.427 39.7721 54.427C28.9421 54.427 20.1626 45.6476 20.1626 34.8176C20.1626 23.9875 28.9421 15.208 39.7721 15.208C50.6022 15.208 59.3816 23.9875 59.3816 34.8176Z" stroke="black" stroke-width="0.628075"/>
<path d="M61.6689 39.8095L61.4735 40.5062L66.6121 41.9477L66.8076 41.2509L67.5043 41.4463L66.8886 43.6412L66.1919 43.4457L66.3873 42.749L61.2487 41.3075L61.0533 42.0043L60.3564 41.8088L60.9721 39.614L61.6689 39.8095Z" fill="black"/>
<path d="M64.9996 48.4678L63.9299 49.9716L58.8406 48.4493L61.9479 52.7578L60.8782 54.2615L60.2886 53.842L60.6556 53.326L56.3067 50.2324L55.9396 50.7483L55.35 50.3289L56.5665 48.6188L57.1561 49.0383L56.7891 49.5542L60.7473 52.3699L57.7696 48.1758L58.231 47.5272L63.1698 48.9646L59.2116 46.1489L58.8446 46.6648L58.2548 46.2453L59.4713 44.5353L60.061 44.9547L59.694 45.4707L64.0429 48.5643L64.4099 48.0484L64.9996 48.4678Z" fill="black"/>
<path d="M56.0706 58.2835L52.9533 60.1205L51.6377 59.7409L50.5814 57.9484L50.8867 56.6135L52.7416 55.5205L51.7312 53.806L51.1078 54.1734L50.7404 53.5499L52.6263 52.4386L52.9937 53.0621L52.4482 53.3835L55.1578 57.9816L55.7033 57.66L56.0706 58.2835ZM54.4132 58.3573L53.1365 56.1908L51.5934 57.1L51.4124 57.8262L52.1472 59.0732L52.8623 59.2712L54.4132 58.3573Z" fill="black"/>
<path d="M47.2083 62.3815L42.9922 63.2557L42.6323 61.5197L43.3408 61.3728L43.5539 62.4002L45.6265 61.9705L45.1582 59.7118L43.0855 60.1416L42.9386 59.433L45.0113 59.0033L44.5429 56.7446L42.4703 57.1744L42.6834 58.2019L41.9748 58.3488L41.6147 56.6127L45.8309 55.7385L45.9778 56.4471L45.3578 56.5757L46.4414 61.8015L47.0614 61.6729L47.2083 62.3815Z" fill="black"/>
<path d="M36.8203 63.2662L33.2661 62.588L32.5286 61.4342L32.9016 59.4794L34.0122 58.6783L33.4514 56.4533L32.9894 56.3651L33.125 55.6543L34.7955 55.973L34.6598 56.6839L34.3133 56.6177L34.874 58.8428L36.1269 59.0818L36.5169 57.0382L35.9838 56.9365L36.1194 56.2257L38.092 56.6021L37.9563 57.3129L37.3343 57.1942L36.3339 62.4366L36.956 62.5553L36.8203 63.2662ZM35.5267 62.2273L35.9811 59.846L34.2218 59.5103L33.6064 59.9362L33.352 61.269L33.7585 61.8899L35.5267 62.2273Z" fill="black"/>
<path d="M29.9759 55.0376L29.3436 54.6857L26.7482 59.3491L27.3805 59.701L27.0286 60.3333L25.0367 59.2248L25.3887 58.5925L26.021 58.9444L28.6164 54.281L27.9841 53.9291L28.336 53.2968L30.3278 54.4053L29.9759 55.0376Z" fill="black"/>
<path d="M18.478 53.827L17.1127 52.3543L17.6433 51.8624L18.0123 52.2604L21.7271 48.8164L23.0964 48.8298L24.7692 50.634L24.6791 52.0005L20.9643 55.4444L21.3334 55.8424L20.8027 56.3345L19.4374 54.8618L19.968 54.3698L20.3985 54.8342L23.9209 51.5685L23.9588 50.9042L22.7719 49.6239L22.1005 49.605L18.5781 52.8707L19.0086 53.335L18.478 53.827Z" fill="black"/>
<path d="M14.6835 48.6746L13.9923 46.9636L18.015 43.4944L12.7113 43.7933L12.02 42.0824L12.691 41.8113L12.9282 42.3984L17.8766 40.399L17.6393 39.812L18.3103 39.5409L19.0965 41.4867L18.4256 41.7577L18.1884 41.1707L13.6845 42.9904L18.822 42.739L19.1202 43.4771L15.25 46.8652L19.7539 45.0455L19.5167 44.4584L20.1877 44.1873L20.9738 46.1331L20.3028 46.4042L20.0656 45.8171L15.1173 47.8164L15.3545 48.4035L14.6835 48.6746Z" fill="black"/>
<path d="M12.0798 27.9023L13.3326 23.7828L15.0289 24.2987L14.8183 24.9911L13.8144 24.6858L13.1986 26.7108L15.4054 27.382L16.0213 25.3569L16.7137 25.5674L16.0978 27.5926L18.3047 28.2637L18.5152 27.5713L19.2075 27.7819L18.5706 29.8763L17.8782 29.6657L18.0624 29.0599L12.9564 27.5071L12.7722 28.1129L12.0798 27.9023Z" fill="black"/>
<path d="M21.7739 21.3537L22.2356 20.7964L18.1255 17.3919L17.6639 17.9492L17.1066 17.4875L18.5607 15.7321L19.118 16.1937L18.6564 16.751L22.7665 20.1555L23.2281 19.5982L23.7854 20.0599L22.3312 21.8154L21.7739 21.3537Z" fill="black"/>
<path d="M30.8885 14.9434L28.5419 16.1559L28.2097 15.513L29.0133 15.0977L26.5633 10.3563L25.374 10.9709L25.8556 11.9031L25.2449 12.2187L24.431 10.6436L28.7706 8.40125L29.5845 9.97637L28.9737 10.292L28.4921 9.35974L27.3027 9.9743L29.7526 14.7158L30.5563 14.3005L30.8885 14.9434Z" fill="black"/>
<path d="M38.1414 12.4277H38.7747V13.1514H36.676V12.4277H37.3092V7.09072H36.676V6.36707H38.5575L41.1989 12.1292V7.09072H40.5657V6.36707H42.6643V7.09072H42.0311V13.1514H40.7828L38.1414 7.39828V12.4277Z" fill="black"/>
<path d="M49.8273 8.0592L53.7188 9.90195L52.9601 11.5043L52.306 11.1947L52.7551 10.2463L50.8421 9.3404L49.8548 11.4252L51.7679 12.331L51.4582 12.9851L49.5452 12.0792L48.558 14.1639L50.4711 15.0698L50.9201 14.1215L51.5741 14.4312L50.8153 16.0336L46.9238 14.1908L47.2336 13.5368L47.8058 13.8078L50.0899 8.98423L49.5176 8.71324L49.8273 8.0592Z" fill="black"/>
<path d="M61.0824 19.1058L60.5861 18.5424L61.1834 18.0163L61.2456 17.2382L60.3308 16.1997L59.6601 16.1636L58.7233 16.9888L58.677 17.6203L59.9206 19.0322L59.805 20.3516L58.3999 21.5893L57.0314 21.541L55.5247 19.8305L55.6495 18.4668L56.5047 17.7134L57.001 18.2768L56.4037 18.803L56.3476 19.5878L57.382 20.7621L58.0466 20.7914L59.0581 19.9004L59.1036 19.2817L57.86 17.8698L57.9764 16.5377L59.3069 15.3657L60.6754 15.414L62.0625 16.9888L61.9377 18.3524L61.0824 19.1058Z" fill="black"/>
<path d="M65.5155 28.6021L65.283 27.8883L66.04 27.6418L66.4052 26.952L65.9767 25.636L65.3751 25.3373L64.1882 25.7238L63.8953 26.2853L64.4779 28.0743L63.8491 29.2399L62.0687 29.8197L60.8312 29.2333L60.1254 27.0658L60.7803 25.8631L61.864 25.5103L62.0964 26.2242L61.3396 26.4706L60.9771 27.1689L61.4617 28.6569L62.0604 28.9472L63.3419 28.5298L63.6289 27.9798L63.0464 26.1907L63.681 25.0137L65.3669 24.4647L66.6043 25.0511L67.2541 27.0466L66.5993 28.2493L65.5155 28.6021Z" fill="black"/>
</g>
<defs>
<clipPath id="clip0_2010_113">
<rect width="79.5455" height="63.6364" fill="white" transform="translate(0 3)"/>
</clipPath>
</defs>
</svg>
